<svg xmlns="http://www.w3.org/2000/svg" xmlns:xlink="http://www.w3.org/1999/xlink" viewBox="0 0 1617.67 512"><defs><style>.cls-1{fill:#fff;filter:url(#luminosity-invert-noclip);}.cls-2{opacity:0.2;}.cls-3{fill:url(#linear-gradient);}.cls-4{mask:url(#mask);}.cls-5{fill:url(#linear-gradient-2);}</style><linearGradient id="linear-gradient" x1="45.41" y1="35.61" x2="1431.54" y2="436.31" gradientUnits="userSpaceOnUse"><stop offset="0" stop-color="#219644"/><stop offset="0.19" stop-color="#15834d"/><stop offset="0.45" stop-color="#097055"/><stop offset="0.72" stop-color="#02655a"/><stop offset="1" stop-color="#00615c"/></linearGradient><filter id="luminosity-invert-noclip" x="73.31" y="47.85" width="335.26" height="408.16" filterUnits="userSpaceOnUse" color-interpolation-filters="sRGB"><feColorMatrix values="-1 0 0 0 1 0 -1 0 0 1 0 0 -1 0 1 0 0 0 1 0" result="invert"/><feFlood flood-color="#fff" result="bg"/><feBlend in="invert" in2="bg"/></filter><mask id="mask" x="73.31" y="47.85" width="335.26" height="408.16" maskUnits="userSpaceOnUse"><path class="cls-1" d="M256.8,307.84a196.11,196.11,0,0,0-14.19-28.52c-4.21-7.54-7.16-12.85-7.73-16.29l5.56-.48c.5,2.19,3.56,7.67,7.11,14,2.76,4.92,6.19,11.05,9.72,17.91C257.27,294.47,258.14,311.11,256.8,307.84Zm-33.35-2.67,5.14,2.37c1-2.22-.16-4.9-8.42-19.09-2.38-4.08-4.63-7.62-5.51-9.7l-5.23,1.9c.83,2,3.16,6,5.85,10.64,2.87,4.92,7.66,13.16,8,15A2,2,0,0,1,223.45,305.17Zm73.63-178.61c2.86-11.18,2.85-17.85,2.85-18.13l-5.66,0c0,.07,0,6.3-2.67,16.7-4,15.45-8.37,20.78-8.4,20.81l4.25,3.74C287.66,149.47,292.72,143.58,297.08,126.56ZM328.79,134a77.78,77.78,0,0,0,2.63-22.45l-5.65.28a72.46,72.46,0,0,1-2.42,20.63,156.53,156.53,0,0,1-7.84,22.07l5.11,2.42A158.29,158.29,0,0,0,328.79,134Zm-50.63-27.2,1.45-5.47C257.82,95.57,224.47,86.65,222,85.75L220,91.07c1.83.65,15.55,4.37,29.26,8.05C262.37,102.62,275.44,106.08,278.16,106.81Zm-8.94,30c-.12,0-11.5-3.47-22.78-6.76-6.64-1.94-11.95-3.45-15.79-4.5-8.23-2.25-9.29-2.54-10.53-.42L225,128a2.76,2.76,0,0,1-2.45,1.37c2.64.27,29,8,45,12.86ZM188.37,391.1a115.23,115.23,0,0,1,3.57-20c4.41-16,8.8-24.61,8.85-24.7l-5-2.59c-.19.37-4.69,9.19-9.27,25.79a118.29,118.29,0,0,0-3.76,21.15Zm-28.56,4.71c-.66-15.91.91-24.44,4-34.62a269,269,0,0,1,15.71-38.11l-5-2.6c-2.79,5.37-11.13,22.86-16.09,39-3.24,10.53-5,19.88-4.29,36.52Zm90.88,16.64,0-4.66c0-.05.48-1-.93-1.4-2.94-.8-8.81-2-14.1-3.35-5.59-1.43-10-2.52-12.64-3.18a6.24,6.24,0,0,0-3,0c-1.21.73-1.12,4.74-1.12,4.74Zm-12.08-48.81c4.28,1,9.39,2,13.32,2.72l1.48.27c25.58,4.63,33.35,4.57,34.64-.28l-5.46-1.46a1.54,1.54,0,0,1,.61-.9c-1.46.78-7.65.9-28.78-2.93l-1.49-.27c-8.33-1.5-18.29-3.79-19.56-4.33,0,0-1.22-.21-.78.55l-3,3.33c.48.82.7,1.21,3.88,2.06C234.68,362.73,236.33,363.12,238.61,363.64ZM284.25,198.5c-.06-.07-5.51-7.71-10.71-16.77-5.49-9.54-5.73-14.67-5.77-14.75l-12.55-10.82a209.84,209.84,0,0,0,13.41,28.39c5.21,9.4,14.61,22.45,14.84,22.77Zm.91,44.17c-15.09-19.46-19.25-22.13-30.92-39A205.52,205.52,0,0,1,242,184.85c-8.83-15.13-10-23.7-10-23.78l-2.81-.22,2.81.25-5.63-.51c1.15,18.83,18.35,39.82,22.31,46.23,9.45,15.31,16.23,25.68,28.57,35.24Zm14,2.52c5.16-.78,14.15-1.66,19.81-3.46C342.2,234.35,347.52,227,347.52,227L315.6,237.06c-2.33,1-7,1.85-14.16,2.82-5.57.75-32.61,5.05-32.88,5.11,0,0-.27,6.25,1.09,5.87C282.64,247.15,293.63,246,299.16,245.19ZM322.93,270c5.1-.8,11.46-1.79,19.17-3.17l2.24-.4c12.22-2.16,29-5.11,46-16l-3-4.76c-16.14,10.3-31.58,13-44,15.22l-2.26.4c-7.64,1.37-14,2.36-19.05,3.15-11.28,1.76-14,2.24-15.41,3.87l4.27,3.7a1.35,1.35,0,0,1-.4.35C311.57,271.72,317.09,270.86,322.93,270Z"/></mask><linearGradient id="linear-gradient-2" x1="123.18" y1="217.93" x2="1057.18" y2="487.93" gradientUnits="userSpaceOnUse"><stop offset="0" stop-color="#219644"/><stop offset="0.49" stop-color="#127e4f"/><stop offset="1" stop-color="#00615c"/></linearGradient></defs><g id="shape"><path class="cls-2" d="M588,359.81V424H533.38V132.82H588V309.5l84.77-96.26h65.76l-93.49,97.84L739.76,424H670.83l-65.36-83.19ZM950.5,305.14V424H895.84V312.67c0-8.72,0-18.62-.79-29.32-1.59-22.18-13.87-37.23-40.41-37.23s-47.54,23-47.54,81.6V424H752.44V213.24H807.1V247.3l16.24-25c15.06-10.7,30.51-14.66,50.71-14.66,44.76,0,70.51,22.18,74.87,59C950.11,277.41,950.5,288.1,950.5,305.14ZM1191,318.61c0,63.78-39.22,110.92-109.34,110.92S972.29,382.39,972.29,318.61c0-64.18,39.22-110.92,109.33-110.92S1191,254.43,1191,318.61Zm-56.65,0c0-45.56-19.81-72.49-52.69-72.49s-52.68,26.93-52.68,72.49c0,45.16,19.8,72.49,52.68,72.49S1134.31,363.77,1134.31,318.61Zm145.77,29.71c0,7.13,0,13.07.4,18.62,1.58,20.6,9.11,25.35,39.61,23v35.65a221,221,0,0,1-36,2.78c-40.81,0-55.46-13.47-57.84-43.18-.79-9.51-.79-18.62-.79-30.5V250.87h-30.9V214.82h30.9V162.93h54.66v51.89h43.58v36.05h-43.58Zm224.61-74.08H1450c-3.56-19.41-14.26-30.5-32.48-30.5-16.24,0-25,9.51-25,22.58,0,15.84,13.08,24.16,47.94,32.88,43.17,11.09,68.53,28.52,68.53,67.34,0,42.39-38.43,63-86.76,63-51.1,0-87.15-22.19-93.09-69.72h54.67c4.36,23,20.2,33.67,39.22,33.67,17.43,0,30.89-7.53,30.89-23,0-16.24-13.86-25.35-50.3-34.46-39.22-9.91-66.16-26.94-66.16-63.38,0-40.41,33.28-65,83.59-65S1499.94,235.82,1504.69,274.24Z"/><path class="cls-2" d="M154.32,82.3l86.8,23.25c20.43-35,60.21-47.48,60.21-47.48s29.6,30.83,30.27,71.08c64,8.53,135.33,104,26.48,144,87.59,83.53,5.39,174.8-102.47,143.5C232.17,456.18,192,466.23,192,466.23S166,442,164.74,393.05L79.15,370.12s36.27-8.63,40-22.46l60.79-226.89C184.74,102.81,154.32,82.3,154.32,82.3ZM260,213.59c-.14-.34-13.3,8.93-18.4,27.93-6.22,23.24.25,35.41.25,35.41,13.8-10.94,51.38-21.31,51.38-21.31S267.77,232.35,260,213.59ZM324.64,252c.38.27,49.76-14.55,44.2-42.33-6.44-32.15-46.2-48-46.2-48-8.56,23.2-42.19,41.56-42.19,41.56S292.23,229.28,324.64,252Zm-70,48.62S272.51,327,265.4,377.33c0,0,54.47,14.38,74.07-20.21,24.31-42.9-22.09-80.75-22.09-80.75C278.21,280.17,254.63,300.59,254.63,300.59Zm40.05-217.7s-23.41,12.59-29.17,29.17l39.85,10.68C308.79,107,294.68,82.89,294.68,82.89ZM268.13,182s23.41-12.59,29.17-29.17l-39.85-10.68C254,157.9,268.13,182,268.13,182Zm-68.6,257.23S222.94,426.62,228.7,410l-39.85-10.67C185.42,415.14,199.53,439.21,199.53,439.21Zm34-126.87s-24.53,15.55-34.6,49.43l39.84,10.68C246.41,337.31,233.53,312.34,233.53,312.34Zm-11.79-21s-12.12-22-3.47-54.31c8.07-30.1,29.59-42,29.59-42-18.29-35.41-13.31-59.6-13.31-59.6s-18.67-7.54-22.52,6.85L159.58,338c-3.46,12.93,15.67,17.42,15.67,17.42S186.55,321.53,221.74,291.35Z"/><path class="cls-3" d="M576.87,348.12v64.17H522.2V121.14h54.67V297.81l84.77-96.26H727.4l-93.49,97.84,94.68,112.9H659.66L594.3,329.11Zm362.46-54.67V412.29H884.66V301c0-8.71,0-18.62-.79-29.31-1.58-22.19-13.86-37.24-40.4-37.24s-47.54,23-47.54,81.6v96.26H741.26V201.55h54.67v34.07l16.24-25C827.22,200,842.67,196,862.88,196c44.76,0,70.51,22.19,74.87,59C938.93,265.72,939.33,276.42,939.33,293.45Zm240.45,13.47c0,63.78-39.22,110.92-109.33,110.92S961.12,370.7,961.12,306.92c0-64.17,39.21-110.92,109.33-110.92S1179.78,242.75,1179.78,306.92Zm-56.65,0c0-45.55-19.8-72.49-52.68-72.49s-52.69,26.94-52.69,72.49c0,45.16,19.81,72.49,52.69,72.49S1123.13,352.08,1123.13,306.92Zm145.78,29.71c0,7.13,0,13.07.4,18.62,1.58,20.6,9.11,25.35,39.61,23v35.65a221.1,221.1,0,0,1-36.05,2.77c-40.8,0-55.46-13.47-57.83-43.18-.8-9.5-.8-18.62-.8-30.5V239.18h-30.89v-36h30.89v-51.9h54.67v51.9h43.58v36h-43.58Zm224.61-74.07h-54.67c-3.57-19.42-14.26-30.51-32.48-30.51-16.24,0-25,9.51-25,22.58,0,15.85,13.07,24.17,47.93,32.88,43.18,11.09,68.53,28.52,68.53,67.34,0,42.39-38.42,63-86.75,63-51.1,0-87.15-22.18-93.09-69.72h54.67c4.35,23,20.2,33.67,39.21,33.67,17.43,0,30.9-7.53,30.9-23,0-16.25-13.86-25.36-50.31-34.47-39.22-9.9-66.15-26.93-66.15-63.38,0-40.41,33.27-65,83.58-65S1488.76,224.13,1493.52,262.56Z"/><g class="cls-4"><path class="cls-5" d="M148.48,72.08l86.79,23.26c20.44-35,60.22-47.49,60.22-47.49s29.6,30.83,30.26,71.08c64,8.53,135.33,104,26.48,144,87.6,83.53,5.4,174.8-102.47,143.5C226.32,446,186.12,456,186.12,456s-26-24.27-27.23-73.18L73.31,359.9s36.27-8.62,40-22.46l60.8-226.89C178.89,92.59,148.48,72.08,148.48,72.08ZM254.14,203.37c-.14-.34-13.3,8.93-18.39,27.93-6.23,23.24.24,35.41.24,35.41,13.8-10.94,51.38-21.31,51.38-21.31S261.93,222.13,254.14,203.37Zm64.66,38.38c.37.27,49.76-14.55,44.19-42.33-6.44-32.15-46.2-48-46.2-48C308.23,174.6,274.6,193,274.6,193S286.39,219.06,318.8,241.75Zm-70,48.62s17.89,26.41,10.77,76.74c0,0,54.47,14.39,74.07-20.21,24.31-42.9-22.08-80.75-22.08-80.75C272.36,270,248.78,290.37,248.78,290.37Zm40-217.7s-23.41,12.59-29.17,29.17l39.85,10.68C302.94,96.75,288.83,72.67,288.83,72.67Zm-26.55,99.09s23.41-12.59,29.17-29.17l-39.84-10.68C248.18,147.69,262.28,171.76,262.28,171.76ZM193.68,429s23.41-12.6,29.17-29.18L183,389.15C179.58,404.92,193.68,429,193.68,429Zm34-126.88s-24.53,15.55-34.6,49.43l39.85,10.68C240.56,327.09,227.68,302.12,227.68,302.12Zm-11.79-21s-12.12-22-3.47-54.31c8.07-30.1,29.59-42,29.59-42-18.29-35.41-13.31-59.6-13.31-59.6S210,117.65,206.18,132L153.73,327.78c-3.46,12.93,15.67,17.43,15.67,17.43S180.7,311.31,215.89,281.13Z"/></g></g></svg>