<svg xmlns="http://www.w3.org/2000/svg" xmlns:xlink="http://www.w3.org/1999/xlink" viewBox="0 0 1244 512"><defs><style>.cls-1{fill:#fff;filter:url(#luminosity-invert-noclip);}.cls-2{fill:url(#linear-gradient);}.cls-3{mask:url(#mask);}.cls-4{fill:url(#linear-gradient-2);}</style><linearGradient id="linear-gradient" x1="149.11" y1="105.89" x2="1075.11" y2="383.89" gradientUnits="userSpaceOnUse"><stop offset="0" stop-color="#219644"/><stop offset="0.19" stop-color="#15834d"/><stop offset="0.45" stop-color="#097055"/><stop offset="0.72" stop-color="#02655a"/><stop offset="1" stop-color="#00615c"/></linearGradient><filter id="luminosity-invert-noclip" x="73.31" y="47.85" width="335.26" height="408.16" filterUnits="userSpaceOnUse" color-interpolation-filters="sRGB"><feColorMatrix values="-1 0 0 0 1 0 -1 0 0 1 0 0 -1 0 1 0 0 0 1 0" result="invert"/><feFlood flood-color="#fff" result="bg"/><feBlend in="invert" in2="bg"/></filter><mask id="mask" x="73.31" y="47.85" width="335.26" height="408.16" maskUnits="userSpaceOnUse"><path class="cls-1" d="M256.8,307.84a196.11,196.11,0,0,0-14.19-28.52c-4.21-7.54-7.16-12.85-7.73-16.29l5.56-.48c.5,2.19,3.56,7.67,7.11,14,2.76,4.92,6.19,11.05,9.72,17.91C257.27,294.47,258.14,311.11,256.8,307.84Zm-33.35-2.67,5.14,2.37c1-2.22-.16-4.9-8.42-19.09-2.38-4.08-4.63-7.62-5.51-9.7l-5.23,1.9c.83,2,3.16,6,5.85,10.64,2.87,4.92,7.66,13.16,8,15A2,2,0,0,1,223.45,305.17Zm73.63-178.61c2.86-11.18,2.85-17.85,2.85-18.13l-5.66,0c0,.07,0,6.3-2.67,16.7-4,15.45-8.37,20.78-8.4,20.81l4.25,3.74C287.66,149.47,292.72,143.58,297.08,126.56ZM328.79,134a77.78,77.78,0,0,0,2.63-22.45l-5.65.28a72.46,72.46,0,0,1-2.42,20.63,156.53,156.53,0,0,1-7.84,22.07l5.11,2.42A158.29,158.29,0,0,0,328.79,134Zm-50.63-27.2,1.45-5.47C257.82,95.57,224.47,86.65,222,85.75L220,91.07c1.83.65,15.55,4.37,29.26,8.05C262.37,102.62,275.44,106.08,278.16,106.81Zm-8.94,30c-.12,0-11.5-3.47-22.78-6.76-6.64-1.94-11.95-3.45-15.79-4.5-8.23-2.25-9.29-2.54-10.53-.42L225,128a2.76,2.76,0,0,1-2.45,1.37c2.64.27,29,8,45,12.86ZM188.37,391.1a115.23,115.23,0,0,1,3.57-20c4.41-16,8.8-24.61,8.85-24.7l-5-2.59c-.19.37-4.69,9.19-9.27,25.79a118.29,118.29,0,0,0-3.76,21.15Zm-28.56,4.71c-.66-15.91.91-24.44,4-34.62a269,269,0,0,1,15.71-38.11l-5-2.6c-2.79,5.37-11.13,22.86-16.09,39-3.24,10.53-5,19.88-4.29,36.52Zm90.88,16.64,0-4.66c0-.05.48-1-.93-1.4-2.94-.8-8.81-2-14.1-3.35-5.59-1.43-10-2.52-12.64-3.18a6.24,6.24,0,0,0-3,0c-1.21.73-1.12,4.74-1.12,4.74Zm-12.08-48.81c4.28,1,9.39,2,13.32,2.72l1.48.27c25.58,4.63,33.35,4.57,34.64-.28l-5.46-1.46a1.54,1.54,0,0,1,.61-.9c-1.46.78-7.65.9-28.78-2.93l-1.49-.27c-8.33-1.5-18.29-3.79-19.56-4.33,0,0-1.22-.21-.78.55l-3,3.33c.48.82.7,1.21,3.88,2.06C234.68,362.73,236.33,363.12,238.61,363.64ZM284.25,198.5c-.06-.07-5.51-7.71-10.71-16.77-5.49-9.54-5.73-14.67-5.77-14.75l-12.55-10.82a209.84,209.84,0,0,0,13.41,28.39c5.21,9.4,14.61,22.45,14.84,22.77Zm.91,44.17c-15.09-19.46-19.25-22.13-30.92-39A205.52,205.52,0,0,1,242,184.85c-8.83-15.13-10-23.7-10-23.78l-2.81-.22,2.81.25-5.63-.51c1.15,18.83,18.35,39.82,22.31,46.23,9.45,15.31,16.23,25.68,28.57,35.24Zm14,2.52c5.16-.78,14.15-1.66,19.81-3.46C342.2,234.35,347.52,227,347.52,227L315.6,237.06c-2.33,1-7,1.85-14.16,2.82-5.57.75-32.61,5.05-32.88,5.11,0,0-.27,6.25,1.09,5.87C282.64,247.15,293.63,246,299.16,245.19ZM322.93,270c5.1-.8,11.46-1.79,19.17-3.17l2.24-.4c12.22-2.16,29-5.11,46-16l-3-4.76c-16.14,10.3-31.58,13-44,15.22l-2.26.4c-7.64,1.37-14,2.36-19.05,3.15-11.28,1.76-14,2.24-15.41,3.87l4.27,3.7a1.35,1.35,0,0,1-.4.35C311.57,271.72,317.09,270.86,322.93,270Z"/></mask><linearGradient id="linear-gradient-2" x1="116.47" y1="214.6" x2="1042.47" y2="492.6" gradientUnits="userSpaceOnUse"><stop offset="0" stop-color="#219644"/><stop offset="0.49" stop-color="#127e4f"/><stop offset="1" stop-color="#00615c"/></linearGradient></defs><g id="shape"><path class="cls-2" d="M511.3,324.71V368H474.46V171.76H511.3V290.81L568.42,226h44.31l-63,65.93L613.53,368H567.08L523,311.9Zm244.23-36.84V368H718.7v-75c0-5.87,0-12.54-.54-19.75-1.07-14.95-9.34-25.09-27.22-25.09s-32,15.48-32,55V368H622.07V226h36.84v23l10.94-16.81c10.14-7.21,20.55-9.88,34.16-9.88,30.17,0,47.52,14.95,50.45,39.77A226.14,226.14,0,0,1,755.53,287.87Zm162,9.08c0,43-26.42,74.74-73.67,74.74S770.21,339.92,770.21,297c0-43.24,26.43-74.74,73.67-74.74S917.55,253.71,917.55,297Zm-38.17,0c0-30.7-13.34-48.85-35.5-48.85s-35.5,18.15-35.5,48.85c0,30.43,13.35,48.84,35.5,48.84S879.38,327.38,879.38,297Zm98.23,20c0,4.8,0,8.81.26,12.54,1.07,13.88,6.14,17.09,26.7,15.48v24a149.52,149.52,0,0,1-24.29,1.87c-27.5,0-37.37-9.08-39-29.1-.54-6.41-.54-12.54-.54-20.55V251.3H920V227h20.82v-35h36.84v35H1007V251.3H977.61ZM1129,267.05h-36.83c-2.41-13.08-9.61-20.55-21.89-20.55-11,0-16.82,6.41-16.82,15.21,0,10.68,8.81,16.29,32.3,22.16,29.09,7.47,46.18,19.22,46.18,45.38,0,28.56-25.89,42.44-58.46,42.44-34.43,0-58.72-14.95-62.73-47h36.84c2.94,15.48,13.61,22.69,26.43,22.69,11.74,0,20.81-5.08,20.81-15.49,0-10.94-9.34-17.08-33.89-23.22-26.43-6.67-44.58-18.15-44.58-42.7,0-27.23,22.42-43.78,56.32-43.78S1125.75,241.16,1129,267.05Z"/><g class="cls-3"><path class="cls-4" d="M148.48,72.08l86.79,23.26c20.44-35,60.22-47.49,60.22-47.49s29.6,30.83,30.26,71.08c64,8.53,135.33,104,26.48,144,87.6,83.53,5.4,174.8-102.47,143.5C226.32,446,186.12,456,186.12,456s-26-24.27-27.23-73.18L73.31,359.9s36.27-8.62,40-22.46l60.8-226.89C178.89,92.59,148.48,72.08,148.48,72.08ZM254.14,203.37c-.14-.34-13.3,8.93-18.39,27.93-6.23,23.24.24,35.41.24,35.41,13.8-10.94,51.38-21.31,51.38-21.31S261.93,222.13,254.14,203.37Zm64.66,38.38c.37.27,49.76-14.55,44.19-42.33-6.44-32.15-46.2-48-46.2-48C308.23,174.6,274.6,193,274.6,193S286.39,219.06,318.8,241.75Zm-70,48.62s17.89,26.41,10.77,76.74c0,0,54.47,14.39,74.07-20.21,24.31-42.9-22.08-80.75-22.08-80.75C272.36,270,248.78,290.37,248.78,290.37Zm40-217.7s-23.41,12.59-29.17,29.17l39.85,10.68C302.94,96.75,288.83,72.67,288.83,72.67Zm-26.55,99.09s23.41-12.59,29.17-29.17l-39.84-10.68C248.18,147.69,262.28,171.76,262.28,171.76ZM193.68,429s23.41-12.6,29.17-29.18L183,389.15C179.58,404.92,193.68,429,193.68,429Zm34-126.88s-24.53,15.55-34.6,49.43l39.85,10.68C240.56,327.09,227.68,302.12,227.68,302.12Zm-11.79-21s-12.12-22-3.47-54.31c8.07-30.1,29.59-42,29.59-42-18.29-35.41-13.31-59.6-13.31-59.6S210,117.65,206.18,132L153.73,327.78c-3.46,12.93,15.67,17.43,15.67,17.43S180.7,311.31,215.89,281.13Z"/></g></g></svg>