<svg xmlns="http://www.w3.org/2000/svg" xmlns:xlink="http://www.w3.org/1999/xlink" viewBox="0 0 2753.38 510.72"><defs><style>.cls-1{fill:url(#linear-gradient);}.cls-2,.cls-5{font-size:423.03px;letter-spacing:-0.03em;}.cls-2,.cls-5,.cls-6{fill:#fff;}.cls-2{font-family:Aileron-Light, Aileron;font-weight:300;}.cls-3{letter-spacing:-0.04em;}.cls-4{letter-spacing:-0.03em;}.cls-5{font-family:Aileron-Bold, Aileron;font-weight:700;}</style><linearGradient id="linear-gradient" x1="537.08" y1="-612.93" x2="2494.26" y2="1411.11" gradientUnits="userSpaceOnUse"><stop offset="0" stop-color="#219644"/><stop offset="0.49" stop-color="#127e4f"/><stop offset="1" stop-color="#00615c"/></linearGradient></defs><g id="trace"><rect class="cls-1" width="2753.38" height="510.72" rx="80.05"/></g><g id="shape"><text class="cls-2" transform="translate(421.14 402.3)">bi<tspan class="cls-3" x="311.35" y="0">t</tspan><tspan class="cls-4" x="415.41" y="0">coin</tspan></text><text class="cls-5" transform="translate(1593.84 402.3)">knots</text><path class="cls-6" d="M211.63,188.67c-16.71-18.35-23.35-33.69-26.1-43.28h24.21c12.41,27.92,44.32,56.57,74.67,70.81A91.52,91.52,0,0,1,270,224.58c-5,2.43-7.93,3.83-9.65,4.64C254.28,226,236.15,215,211.6,188.7Zm76.71-65.92a81,81,0,0,1-1.7,16.29c56.9,14,60.78,58.66,8.5,85.46-31,15.9-42.69,18.81-59.85,36a49,49,0,0,0,6.55,8.68c2.72,3,7,8.12,10,11.82,15.85-18.74,49.21-32,77.36-44.61,93-41.78,38.22-136.63-43.26-133.33A75.77,75.77,0,0,1,288.34,122.75ZM270.69,349.81c1.16-.16,2.16-.32,3-.48-13.51-51.15-26.9-53.42-47.27-81.33-13.86-25.87-7.73-46.51-4.65-53.85-2.39-2.21-5.72-5.33-8.87-8.48-3.33-3.33-6-6.14-7.95-8.24-20.7,27.47-14.06,64.79,2.77,86.74,16.81,21.5,33,26.85,40.46,66.87C253.1,351,264.05,350.71,270.69,349.81ZM94,401.48l77.6-.17a114.41,114.41,0,0,1-1.87-20.09,116.39,116.39,0,0,1,1.37-20.31c-4.52-1.37-7.73-4.3-7.73-11.27V147c1.21-14.88,11-12.25,45.54-12.25,18.21,0,18.3.45,27.65.39a79.79,79.79,0,0,0,1.54-15.88A72.08,72.08,0,0,0,236.45,104H226.37c-25.05.08-106.15,0-134.26,0,0,0,34.69,11.94,34.69,30.54V369.43C126.8,383.76,94,401.48,94,401.48ZM346.68,241c-3.17,1.69-9.69,4.83-22.57,10-5.47,2.2-9.57,4.16-12.26,5.54,41.52,23.5,49.84,87.95-14.47,100.95-18.11,5.25-55.25,5.05-78.1,4.9-.58,2-1.75,7.76-1.54,19.62.21,11.64,1.95,17.78,2.43,19.28H276.9C387,403.53,444.67,299.73,346.68,241ZM209.85,93.43c5.33-13.94,18-25.18,18-25.18,23.64,18.34,31.6,68.62,7,95.14a93.54,93.54,0,0,0,9,10.57,80.22,80.22,0,0,0,8.23,7c48.68-54,17.85-112-24.21-138.41,0,0-29.16,17.7-42.29,50.88Zm36.27,318.63c-5.52,13.69-18,25-18,25-23.58-21.06-25.39-51.68-20-82.84h0c2.06-18.34,8.19-30.86,13.17-38.7a59.48,59.48,0,0,0-5.51-6c-2.89-2.8-7.4-7.56-10.66-11-38.54,63.77-29.64,134.17,22.73,166.65,0,0,30.29-16,44.86-53.05Z"/></g></svg>