<svg xmlns="http://www.w3.org/2000/svg" viewBox="0 0 2760 512"><defs><style>.cls-1,.cls-4{font-size:423.03px;letter-spacing:-0.03em;}.cls-1,.cls-4,.cls-5{fill:#fff;}.cls-1{font-family:Aileron-Light, Aileron;font-weight:300;}.cls-2{letter-spacing:-0.04em;}.cls-3{letter-spacing:-0.03em;}.cls-4{font-family:Aileron-Bold, Aileron;font-weight:700;}</style></defs><g id="shape"><rect x="1.66" y="2.53" width="2756" height="505.31" rx="79.52"/><text class="cls-1" transform="translate(425.42 403.47)">bi<tspan class="cls-2" x="311.35" y="0">t</tspan><tspan class="cls-3" x="415.41" y="0">coin</tspan></text><text class="cls-4" transform="translate(1598.12 403.47)">knots</text><path class="cls-5" d="M215.91,189.84c-16.71-18.35-23.35-33.69-26.11-43.28H214c12.41,27.91,44.32,56.56,74.67,70.8a90.3,90.3,0,0,1-14.43,8.39c-5,2.42-7.93,3.83-9.64,4.63-6.06-3.26-24.19-14.25-48.74-40.51Zm76.71-65.92a80.17,80.17,0,0,1-1.71,16.29c56.91,13.95,60.78,58.65,8.51,85.46-31,15.89-42.69,18.8-59.86,36a49,49,0,0,0,6.56,8.68c2.72,3,7,8.12,10,11.83,15.86-18.74,49.22-32,77.37-44.62,93-41.77,38.21-136.62-43.27-133.33A75.35,75.35,0,0,1,292.62,123.92ZM275,351c1.17-.16,2.16-.32,3-.47-13.52-51.15-26.9-53.42-47.27-81.33-13.86-25.87-7.73-46.51-4.65-53.86-2.4-2.2-5.72-5.32-8.87-8.48-3.33-3.32-6-6.14-7.95-8.23-20.7,27.47-14.06,64.79,2.77,86.74,16.8,21.5,33,26.85,40.46,66.87C257.38,352.14,268.33,351.88,275,351ZM98.28,402.65l77.6-.18A113.08,113.08,0,0,1,174,382.39a115.72,115.72,0,0,1,1.36-20.31c-4.51-1.37-7.72-4.3-7.72-11.27V148.16c1.2-14.88,11-12.25,45.54-12.25,18.21,0,18.3.45,27.64.39a79,79,0,0,0,1.55-15.88,72,72,0,0,0-1.65-15.27H230.65c-25.06.09-106.15,0-134.26,0,0,0,34.69,11.93,34.69,30.53V370.6C131.08,384.93,98.28,402.65,98.28,402.65ZM351,242.13c-3.17,1.69-9.69,4.82-22.57,10-5.48,2.2-9.57,4.16-12.26,5.54,41.52,23.5,49.84,87.94-14.48,100.94-18.1,5.25-55.24,5.06-78.1,4.9-.57,2.05-1.74,7.77-1.53,19.63.21,11.64,1.94,17.78,2.43,19.28h56.72C391.27,404.7,449,300.9,351,242.13ZM214.13,94.6c5.33-13.94,18-25.18,18-25.18,23.64,18.33,31.6,68.61,7,95.14a93.33,93.33,0,0,0,9,10.56,80.11,80.11,0,0,0,8.24,7c48.68-54,17.85-111.95-24.21-138.4,0,0-29.16,17.7-42.3,50.88ZM250.4,413.22c-5.52,13.7-18,25-18,25-23.59-21.06-25.39-51.68-20.05-82.85h0c2.06-18.33,8.19-30.86,13.17-38.7a62,62,0,0,0-5.51-6c-2.89-2.81-7.4-7.56-10.67-11.05-38.53,63.77-29.63,134.17,22.74,166.66,0,0,30.29-16,44.85-53.06Z"/></g></svg>