<svg xmlns="http://www.w3.org/2000/svg" xmlns:xlink="http://www.w3.org/1999/xlink" viewBox="0 0 2853.33 512"><defs><style>.cls-1{fill:url(#linear-gradient);}.cls-2{opacity:0.33;}.cls-3{fill:#fff;}.cls-4{fill:url(#linear-gradient-2);}</style><linearGradient id="linear-gradient" x1="13.42" y1="3.4" x2="584.93" y2="594.43" gradientUnits="userSpaceOnUse"><stop offset="0" stop-color="#219644"/><stop offset="0.49" stop-color="#127e4f"/><stop offset="1" stop-color="#00615c"/></linearGradient><linearGradient id="linear-gradient-2" x1="585.51" y1="250.96" x2="2795.89" y2="250.96" gradientUnits="userSpaceOnUse"><stop offset="0" stop-color="#219644"/><stop offset="0.19" stop-color="#15834d"/><stop offset="0.45" stop-color="#097055"/><stop offset="0.72" stop-color="#02655a"/><stop offset="1" stop-color="#00615c"/></linearGradient></defs><g id="trace"><rect class="cls-1" x="3.66" y="2.02" width="509.86" height="509.86" rx="89.62"/><path class="cls-2" d="M100.39,102.41h98.84c11.75-43,50.46-67.6,50.46-67.6s40.23,24.33,52.4,66.91c70.44-9.16,173.4,72,69.12,145.43,116.85,63.81,55.5,184.19-68,181.65-13.64,48.71-53.5,70.83-53.5,70.83s-34.51-18.39-49.76-70H102.46s36.09-19.49,36.09-35.25V136C138.55,115.54,100.39,102.41,100.39,102.41ZM250,211.82c-.25-.31-11.59,13.28-11.59,34.93,0,26.46,10.34,37.55,10.34,37.55C260.34,268.74,297.32,247,297.32,247S263.65,229.55,250,211.82Zm79.62,22.38c.48.18,48.73-29.63,34.91-57.56-16-32.33-62.76-37.87-62.76-37.87-2.49,27.09-33,56.17-33,56.17S288.77,219.32,329.66,234.2Zm-60.54,71.59s26.51,23,33.29,78.47c0,0,62-.22,72.94-42.55C389,289.2,328.9,262.19,328.9,262.19,288.35,277.38,269.12,305.79,269.12,305.79ZM249.69,63.08s-21.29,20-22.69,39.3h45.38C271.53,84.65,249.69,63.08,249.69,63.08Zm0,112.85s21.29-20.05,22.69-39.3H227C227.85,154.36,249.69,175.93,249.69,175.93ZM250,468.77s21.29-20,22.69-39.3H227.35C228.2,447.21,250,468.77,250,468.77Zm0-144.48s-21.64,23.5-22.69,62.37h45.38C270.84,347.15,250,324.29,250,324.29Zm-18.5-19s-19.15-19.93-19.15-56.72c0-34.28,19.47-53.08,19.47-53.08C202.34,163.12,200.75,136,200.75,136s-22-2.7-22,13.68V372.61c0,14.72,21.62,14.05,21.62,14.05S202.74,347.42,231.54,305.34Z"/><path class="cls-3" d="M220.8,180.52c-18.38-20.19-25.69-37.06-28.72-47.61h26.63c13.66,30.71,48.76,62.22,82.15,77.89A100.72,100.72,0,0,1,285,220c-5.48,2.67-8.73,4.22-10.61,5.1-6.67-3.59-26.61-15.68-53.62-44.57ZM305.18,108a88.33,88.33,0,0,1-1.88,17.92c62.6,15.35,66.86,64.52,9.36,94-34.1,17.49-47,20.69-65.84,39.63a53.75,53.75,0,0,0,7.2,9.55c3,3.31,7.66,8.93,11,13,17.44-20.61,54.14-35.17,85.11-49.07,102.34-45.95,42-150.29-47.6-146.67A82.9,82.9,0,0,1,305.18,108ZM285.76,357.77c1.28-.18,2.37-.35,3.32-.53-14.87-56.26-29.59-58.76-52-89.46-15.25-28.46-8.51-51.16-5.12-59.24-2.63-2.42-6.29-5.86-9.76-9.33-3.66-3.66-6.6-6.75-8.74-9.06-22.77,30.22-15.46,71.28,3,95.42,18.48,23.65,36.25,29.54,44.5,73.56C266.42,359.05,278.46,358.76,285.76,357.77ZM91.4,414.61l85.36-.19a124.8,124.8,0,0,1-2-22.09,127,127,0,0,1,1.5-22.34c-5-1.52-8.5-4.74-8.5-12.41V134.67C169,118.3,179.79,121.2,217.8,121.2c20,0,20.13.49,30.41.43a87.54,87.54,0,0,0,1.71-17.48,79.26,79.26,0,0,0-1.82-16.79H237c-27.56.09-116.77,0-147.68,0,0,0,38.15,13.13,38.15,33.59V379.36C127.48,395.12,91.4,414.61,91.4,414.61ZM369.35,238c-3.48,1.86-10.66,5.31-24.82,11-6,2.42-10.54,4.57-13.49,6.09,45.67,25.85,54.82,96.74-15.92,111-19.92,5.78-60.77,5.56-85.91,5.39-.63,2.26-1.93,8.54-1.69,21.59.23,12.81,2.14,19.56,2.67,21.21h62.4C413.7,416.86,477.14,302.68,369.35,238ZM218.84,75.76c5.86-15.34,19.79-27.7,19.79-27.7,26,20.16,34.76,75.47,7.7,104.65a101.39,101.39,0,0,0,9.87,11.62,87.51,87.51,0,0,0,9.06,7.7c53.55-59.4,19.63-123.15-26.63-152.24,0,0-32.08,19.47-46.53,56Zm39.89,350.48C252.66,441.31,239,453.75,239,453.75c-25.94-23.17-27.93-56.85-22.06-91.13h0c2.26-20.17,9-33.95,14.48-42.57a66.77,66.77,0,0,0-6.06-6.62c-3.18-3.08-8.14-8.31-11.73-12.15-42.39,70.15-32.6,147.59,25,183.32,0,0,33.32-17.59,49.34-58.36Z"/></g><g id="mask"><path class="cls-4" d="M789.83,288.82c0,81.23-49.91,120.57-106.6,120.57-22,0-43.57-6.77-57.53-19.88l-14-24.12v38.08H585.51V92.54h26.23v128.6l14.8-24.54c15.66-15.23,37.65-22.84,63.46-22.84C752.61,173.76,789.83,222.41,789.83,288.82Zm-28.76,3.39c0-53.73-25.81-97.3-74.88-97.3-39.76,0-74.45,23.69-74.45,91.38v16.92c0,63.88,38.49,85.45,71.49,85.45C728.07,388.66,761.07,352.7,761.07,292.21Zm90.52-160.75a17.59,17.59,0,0,1-17.76,17.76,17.87,17.87,0,0,1-17.77-17.76,17.6,17.6,0,0,1,17.77-17.77A17.34,17.34,0,0,1,851.59,131.46Zm-30.88,272V179.68h26.23V403.47Zm110-61.34c0,9.3,0,14,.42,19.88,1.69,21.57,11,27.07,41,23.27v19.46a146.34,146.34,0,0,1-27.08,2.11c-25,0-38.07-11-40.19-35.53-.42-7.62-.42-16.08-.42-28.77V201.68H875.7V181.37h28.77V131.88H930.7v49.49h42.72v20.31H930.7Zm248.74-89.26H1152c-7.62-37.65-30-58.38-66-58.38-37.65,0-74.45,30.46-74.45,95.18,0,69,34.69,99,72.34,99,33,0,58.37-19,66.41-55h27.08c-10.16,49.49-47,75.72-95.19,75.72-55.84,0-99.41-38.5-99.41-117.6,0-74,47.8-118,104.07-118C1138.41,173.76,1172.67,205.49,1179.44,252.87Zm230.13,38.92c0,65.57-37.65,117.6-108.72,117.6s-108.72-52-108.72-117.6c0-66,37.65-118,108.72-118S1409.57,225.79,1409.57,291.79Zm-28.77,0c0-60.92-33.42-96.88-80-96.88s-80,36-80,96.88,33.42,96.87,80,96.87S1380.8,352.7,1380.8,291.79Zm90.52-160.33a17.59,17.59,0,0,1-17.76,17.76,17.87,17.87,0,0,1-17.77-17.76,17.6,17.6,0,0,1,17.77-17.77A17.34,17.34,0,0,1,1471.32,131.46Zm-30.88,272V179.68h26.23V403.47Zm256.78-125.22V403.47H1671V281.21c0-12.69,0-22.42-.84-33.84-3-30.46-19.89-52-57.54-52-37.22,0-69.8,27.08-69.8,96.88V403.47h-26.22V179.68h26.22v43.15l11.85-24.11c18.19-18.19,38.07-25,63-25,47.38,0,74.45,25.8,78.68,66.84C1697.22,252,1697.22,260.06,1697.22,278.25Zm115.14,56.68v68.54H1754V92.54h58.38V281.21l90.53-102.8h70.22L1873.27,282.9l101.11,120.57h-73.61L1831,314.63Zm387.07-58.37V403.47h-58.38V284.59c0-9.3,0-19.88-.85-31.3-1.69-23.69-14.8-39.77-43.15-39.77s-50.76,24.54-50.76,87.15v102.8h-58.38V178.41h58.38v36.38l17.34-26.65c16.08-11.42,32.58-15.65,54.15-15.65,47.81,0,75.3,23.69,80,63C2199,246.94,2199.43,258.37,2199.43,276.56Zm256.77,14.38c0,68.11-41.88,118.45-116.75,118.45s-116.76-50.34-116.76-118.45c0-68.53,41.88-118.45,116.76-118.45S2456.2,222.41,2456.2,290.94Zm-60.49,0c0-48.65-21.15-77.42-56.26-77.42s-56.27,28.77-56.27,77.42c0,48.23,21.15,77.41,56.27,77.41S2395.71,339.17,2395.71,290.94Zm155.67,31.73c0,7.61,0,14,.42,19.88,1.69,22,9.73,27.07,42.31,24.54v38.07a236.72,236.72,0,0,1-38.5,3c-43.58,0-59.23-14.38-61.76-46.11-.85-10.15-.85-19.88-.85-32.57V218.6h-33V180.1h33V124.69h58.38V180.1h46.53v38.5h-46.53Zm239.85-79.11h-58.37c-3.81-20.73-15.23-32.57-34.69-32.57-17.35,0-26.65,10.15-26.65,24.11,0,16.92,14,25.8,51.18,35.11,46.11,11.85,73.19,30.46,73.19,71.92,0,45.26-41,67.26-92.65,67.26-54.57,0-93.06-23.69-99.41-74.46h58.38c4.65,24.54,21.57,36,41.88,36,18.61,0,33-8,33-24.53,0-17.35-14.81-27.08-53.73-36.81-41.88-10.57-70.65-28.76-70.65-67.68,0-43.15,35.54-69.38,89.26-69.38S2786.16,202.53,2791.23,243.56Z"/></g></svg>