<svg xmlns="http://www.w3.org/2000/svg" xmlns:xlink="http://www.w3.org/1999/xlink" viewBox="0 0 2760 512"><defs><style>.cls-1{fill:url(#linear-gradient);}</style><linearGradient id="linear-gradient" x1="88.47" y1="255" x2="2658.76" y2="255" gradientUnits="userSpaceOnUse"><stop offset="0" stop-color="#219644"/><stop offset="0.19" stop-color="#15834d"/><stop offset="0.45" stop-color="#097055"/><stop offset="0.72" stop-color="#02655a"/><stop offset="1" stop-color="#00615c"/></linearGradient></defs><g id="shape"><path class="cls-1" d="M652.71,288.82c0,81.23-49.92,120.57-106.61,120.57-22,0-43.57-6.77-57.53-19.88l-14-24.12v38.08H448.38V92.54h26.23v128.6l14.81-24.54c15.65-15.23,37.65-22.84,63.45-22.84C615.48,173.76,652.71,222.41,652.71,288.82Zm-28.77,3.39c0-53.73-25.8-97.3-74.88-97.3-39.76,0-74.45,23.69-74.45,91.38v16.92c0,63.88,38.5,85.45,71.49,85.45C590.94,388.66,623.94,352.7,623.94,292.21Zm90.53-160.75a17.6,17.6,0,0,1-17.77,17.76,17.87,17.87,0,0,1-17.77-17.76,17.6,17.6,0,0,1,17.77-17.77A17.35,17.35,0,0,1,714.47,131.46Zm-30.88,272V179.68h26.22V403.47Zm110-61.34c0,9.3,0,14,.42,19.88,1.7,21.57,11,27.07,41,23.27v19.46A146.27,146.27,0,0,1,808,406.85c-25,0-38.07-11-40.18-35.53-.43-7.62-.43-16.08-.43-28.77V201.68H738.58V181.37h28.76V131.88h26.23v49.49H836.3v20.31H793.57Zm248.74-89.26h-27.49c-7.62-37.65-30-58.38-66-58.38-37.65,0-74.45,30.46-74.45,95.18,0,69,34.69,99,72.34,99,33,0,58.38-19,66.42-55h27.07c-10.15,49.49-47,75.72-95.18,75.72-55.84,0-99.42-38.5-99.42-117.6,0-74,47.81-118,104.07-118C1001.28,173.76,1035.55,205.49,1042.31,252.87Zm230.13,38.92c0,65.57-37.65,117.6-108.72,117.6S1055,357.36,1055,291.79c0-66,37.65-118,108.72-118S1272.44,225.79,1272.44,291.79Zm-28.77,0c0-60.92-33.42-96.88-80-96.88s-80,36-80,96.88,33.42,96.87,80,96.87S1243.67,352.7,1243.67,291.79Zm90.53-160.33a17.6,17.6,0,0,1-17.77,17.76,17.87,17.87,0,0,1-17.77-17.76,17.6,17.6,0,0,1,17.77-17.77A17.35,17.35,0,0,1,1334.2,131.46Zm-30.88,272V179.68h26.22V403.47Zm256.77-125.22V403.47h-26.22V281.21c0-12.69,0-22.42-.85-33.84-3-30.46-19.88-52-57.53-52-37.23,0-69.8,27.08-69.8,96.88V403.47h-26.23V179.68h26.23v43.15l11.84-24.11c18.19-18.19,38.07-25,63-25,47.38,0,74.46,25.8,78.69,66.84C1560.09,252,1560.09,260.06,1560.09,278.25Zm115.14,56.68v68.54h-58.38V92.54h58.38V281.21l90.53-102.8H1836L1736.15,282.9l101.1,120.57h-73.61l-69.8-88.84Zm387.07-58.37V403.47h-58.38V284.59c0-9.3,0-19.88-.84-31.3-1.7-23.69-14.81-39.77-43.15-39.77s-50.77,24.54-50.77,87.15v102.8h-58.38V178.41h58.38v36.38l17.35-26.65c16.07-11.42,32.57-15.65,54.15-15.65,47.8,0,75.3,23.69,80,63C2061.88,246.94,2062.3,258.37,2062.3,276.56Zm256.78,14.38c0,68.11-41.89,118.45-116.76,118.45s-116.76-50.34-116.76-118.45c0-68.53,41.88-118.45,116.76-118.45S2319.08,222.41,2319.08,290.94Zm-60.5,0c0-48.65-21.15-77.42-56.26-77.42s-56.27,28.77-56.27,77.42c0,48.23,21.16,77.41,56.27,77.41S2258.58,339.17,2258.58,290.94Zm155.67,31.73c0,7.61,0,14,.42,19.88,1.7,22,9.73,27.07,42.31,24.54v38.07a236.63,236.63,0,0,1-38.5,3c-43.57,0-59.22-14.38-61.76-46.11-.85-10.15-.85-19.88-.85-32.57V218.6h-33V180.1h33V124.69h58.38V180.1h46.53v38.5h-46.53Zm239.86-79.11h-58.38C2591.92,222.83,2580.5,211,2561,211c-17.35,0-26.65,10.15-26.65,24.11,0,16.92,14,25.8,51.19,35.11,46.11,11.85,73.18,30.46,73.18,71.92,0,45.26-41,67.26-92.64,67.26-54.58,0-93.07-23.69-99.42-74.46h58.38c4.66,24.54,21.58,36,41.88,36,18.62,0,33-8,33-24.53,0-17.35-14.81-27.08-53.73-36.81-41.88-10.57-70.64-28.76-70.64-67.68,0-43.15,35.53-69.38,89.26-69.38S2649,202.53,2654.11,243.56ZM208,189.84c-16.71-18.35-23.35-33.69-26.11-43.28h24.21c12.42,27.91,44.33,56.56,74.68,70.8a90.3,90.3,0,0,1-14.43,8.39c-5,2.42-7.93,3.83-9.64,4.63-6.07-3.26-24.19-14.25-48.75-40.51Zm76.71-65.92A80.17,80.17,0,0,1,283,140.21c56.91,13.95,60.78,58.65,8.51,85.46-31,15.89-42.69,18.8-59.86,36a48.8,48.8,0,0,0,6.55,8.68c2.73,3,7,8.12,10,11.83,15.86-18.74,49.22-32,77.37-44.62,93-41.77,38.21-136.62-43.27-133.33A75.35,75.35,0,0,1,284.7,123.92ZM267,351c1.16-.16,2.16-.32,3-.47-13.52-51.15-26.9-53.42-47.27-81.33-13.87-25.87-7.74-46.51-4.66-53.86-2.39-2.2-5.71-5.32-8.87-8.48-3.32-3.32-6-6.14-7.94-8.23-20.7,27.47-14.06,64.79,2.77,86.74,16.8,21.5,32.95,26.85,40.45,66.87C249.46,352.14,260.41,351.88,267,351ZM90.36,402.65l77.6-.18a113.08,113.08,0,0,1-1.87-20.08,115.72,115.72,0,0,1,1.36-20.31c-4.51-1.37-7.72-4.3-7.72-11.27V148.16c1.2-14.88,11-12.25,45.54-12.25,18.21,0,18.29.45,27.64.39a79.79,79.79,0,0,0,1.55-15.88,72,72,0,0,0-1.65-15.27H222.73c-25.06.09-106.15,0-134.26,0,0,0,34.69,11.93,34.69,30.53V370.6C123.16,384.93,90.36,402.65,90.36,402.65ZM343,242.13c-3.17,1.69-9.7,4.82-22.57,10-5.48,2.2-9.58,4.16-12.26,5.54,41.51,23.5,49.84,87.94-14.48,100.94-18.11,5.25-55.24,5.06-78.1,4.9-.57,2.05-1.75,7.77-1.53,19.63.21,11.64,1.94,17.78,2.43,19.28h56.72C383.35,404.7,441,300.9,343,242.13ZM206.2,94.6c5.34-13.94,18-25.18,18-25.18,23.64,18.33,31.6,68.61,7,95.14a93.33,93.33,0,0,0,9,10.56,79.06,79.06,0,0,0,8.24,7c48.68-54,17.84-111.95-24.21-138.4,0,0-29.17,17.7-42.3,50.88Zm36.27,318.62c-5.51,13.7-18,25-18,25-23.58-21.06-25.38-51.68-20-82.85h0c2.05-18.33,8.19-30.86,13.17-38.7a62,62,0,0,0-5.51-6c-2.89-2.81-7.4-7.56-10.67-11.05-38.53,63.77-29.63,134.17,22.74,166.66,0,0,30.29-16,44.85-53.06Z"/></g></svg>