<svg xmlns="http://www.w3.org/2000/svg" xmlns:xlink="http://www.w3.org/1999/xlink" viewBox="0 0 1594.67 512"><defs><style>.cls-1{fill:url(#linear-gradient);}.cls-2{fill:url(#linear-gradient-2);}</style><linearGradient id="linear-gradient" x1="430.25" y1="144.07" x2="1433.87" y2="423.93" gradientUnits="userSpaceOnUse"><stop offset="0.03" stop-color="#f76923"/><stop offset="0.05" stop-color="#f76822"/><stop offset="0.35" stop-color="#f7560f"/><stop offset="0.67" stop-color="#f74c04"/><stop offset="1" stop-color="#f74800"/></linearGradient><linearGradient id="linear-gradient-2" x1="130.68" y1="198.32" x2="375.05" y2="380.31" gradientUnits="userSpaceOnUse"><stop offset="0" stop-color="#ff862a"/><stop offset="0.16" stop-color="#f97724"/><stop offset="0.43" stop-color="#f1641b"/><stop offset="0.71" stop-color="#ed5917"/><stop offset="1" stop-color="#eb5515"/></linearGradient></defs><g id="mask"><path class="cls-1" d="M520.28,334.93v68.54H461.91V92.54h58.37V281.21l90.53-102.8H681L581.2,282.9,682.31,403.47H608.7l-69.8-88.84Zm387.08-58.37V403.47H849V284.59c0-9.3,0-19.88-.85-31.3-1.69-23.69-14.81-39.77-43.15-39.77s-50.76,24.54-50.76,87.15v102.8H695.84V178.41h58.38v36.38l17.34-26.65c16.08-11.42,32.58-15.65,54.15-15.65,47.8,0,75.3,23.69,79.95,63C906.93,246.94,907.36,258.37,907.36,276.56Zm256.77,14.38c0,68.11-41.88,118.45-116.76,118.45S930.61,359.05,930.61,290.94c0-68.53,41.88-118.45,116.76-118.45S1164.13,222.41,1164.13,290.94Zm-60.49,0c0-48.65-21.16-77.42-56.27-77.42s-56.26,28.77-56.26,77.42c0,48.23,21.15,77.41,56.26,77.41S1103.64,339.17,1103.64,290.94Zm155.67,31.73c0,7.61,0,14,.42,19.88,1.69,22,9.73,27.07,42.3,24.54v38.07a236.51,236.51,0,0,1-38.49,3c-43.58,0-59.23-14.38-61.77-46.11-.84-10.15-.84-19.88-.84-32.57V218.6h-33V180.1h33V124.69h58.38V180.1h46.53v38.5h-46.53Zm239.85-79.11h-58.38c-3.8-20.73-15.23-32.57-34.69-32.57-17.34,0-26.65,10.15-26.65,24.11,0,16.92,14,25.8,51.19,35.11,46.11,11.85,73.19,30.46,73.19,71.92,0,45.26-41,67.26-92.65,67.26-54.57,0-93.07-23.69-99.41-74.46h58.38c4.65,24.54,21.57,36,41.88,36,18.61,0,33-8,33-24.53,0-17.35-14.8-27.08-53.72-36.81-41.88-10.57-70.65-28.76-70.65-67.68,0-43.15,35.54-69.38,89.26-69.38S1494.08,202.53,1499.16,243.56Z"/><path class="cls-2" d="M208,189.84c-16.71-18.35-23.35-33.69-26.11-43.28h24.21c12.42,27.91,44.33,56.56,74.68,70.8a90.3,90.3,0,0,1-14.43,8.39c-5,2.42-7.93,3.83-9.64,4.63-6.07-3.26-24.19-14.25-48.75-40.51Zm76.71-65.92A80.17,80.17,0,0,1,283,140.21c56.91,13.95,60.78,58.65,8.51,85.46-31,15.89-42.69,18.8-59.86,36a48.8,48.8,0,0,0,6.55,8.68c2.73,3,7,8.12,10,11.83,15.86-18.74,49.22-32,77.37-44.62,93-41.77,38.21-136.62-43.27-133.33A75.35,75.35,0,0,1,284.7,123.92ZM267,351c1.16-.16,2.16-.32,3-.47-13.52-51.15-26.9-53.42-47.27-81.33-13.87-25.87-7.74-46.51-4.66-53.86-2.39-2.2-5.71-5.32-8.87-8.48-3.32-3.32-6-6.14-7.94-8.23-20.7,27.47-14.06,64.79,2.77,86.74,16.8,21.5,32.95,26.85,40.45,66.87C249.46,352.14,260.41,351.88,267,351ZM90.36,402.65l77.6-.18a113.08,113.08,0,0,1-1.87-20.08,115.72,115.72,0,0,1,1.36-20.31c-4.51-1.37-7.72-4.3-7.72-11.27V148.16c1.2-14.88,11-12.25,45.54-12.25,18.21,0,18.29.45,27.64.39a79.79,79.79,0,0,0,1.55-15.88,72,72,0,0,0-1.65-15.27H222.73c-25.06.09-106.15,0-134.26,0,0,0,34.69,11.93,34.69,30.53V370.6C123.16,384.93,90.36,402.65,90.36,402.65ZM343,242.13c-3.17,1.69-9.7,4.82-22.57,10-5.48,2.2-9.58,4.16-12.26,5.54,41.51,23.5,49.84,87.94-14.48,100.94-18.11,5.25-55.24,5.06-78.1,4.9-.57,2.05-1.75,7.77-1.53,19.63.21,11.64,1.94,17.78,2.43,19.28h56.72C383.35,404.7,441,300.9,343,242.13ZM206.2,94.6c5.34-13.94,18-25.18,18-25.18,23.64,18.33,31.6,68.61,7,95.14a93.33,93.33,0,0,0,9,10.56,79.06,79.06,0,0,0,8.24,7c48.68-54,17.84-111.95-24.21-138.4,0,0-29.17,17.7-42.3,50.88Zm36.27,318.62c-5.51,13.7-18,25-18,25-23.58-21.06-25.38-51.68-20-82.85h0c2.05-18.33,8.19-30.86,13.17-38.7a62,62,0,0,0-5.51-6c-2.89-2.81-7.4-7.56-10.67-11.05-38.53,63.77-29.63,134.17,22.74,166.66,0,0,30.29-16,44.85-53.06Z"/></g></svg>