<svg xmlns="http://www.w3.org/2000/svg" viewBox="0 0 512 512"><defs><style>.cls-1{fill:#fff;}</style></defs><g id="shape"><path class="cls-1" d="M234.39,364.65c4.65-48-11.55-58-23.62-86.44-11.93-28.82-7.89-71.77,24-94.69,2.2,4.86,12,19.79,13.1,21.59,0,0-21.93,21.75-12.68,61.24,14,36.35,28,42,27,104.36-4.38-.51-7.88-1.53-13.7-2.68S234.39,364.65,234.39,364.65ZM341.69,126.2c-1.81,8.48-5.67,15.48-7.35,19.4,58.24,31,50.05,80.37-13.71,94.09-39.48,8.5-52.06,7.77-77.66,23.51,2.49,6.09,8.29,18.44,12.51,26.48,21.49-17.23,62.85-22,98-27.63,111.12-18,79.29-135.09-8.89-154.19C344.08,112.35,344.69,112.2,341.69,126.2Zm-99.63,51.67c23,43.21,42.29,58.74,42.29,58.74s20-3.07,31.12-5.62c-30.56-24-59.25-67.46-63.49-102.76-9.4-2.77-18.93-5.54-25.28-7.28-.3,10.38,1.45,29.88,15.4,56.9ZM217.17,422.1c-9.29,14.62-28.23,24.37-28.23,24.37-19.06-29.09-12.26-62.14,2.29-93.73h0c8.25-21.05,19.83-33,27.48-39.56-2.34-5.42-9.19-16.5-12.58-22.65-61,57-72.48,135.62-25.51,185.66,0,0,38.83-8.84,64.94-46.63ZM368.75,269.86c-12.67,2.52-31.4,3.36-41.71,6.47,40,36.11,31.56,109.84-41.88,105.25-21.73.45-64-11.41-87.77-17.95-4,6.42-11.42,34.84-10.58,41.49l64.11,17.19C368.12,456.32,459.43,360.8,368.75,269.86ZM265.45,79C274.6,64,293.61,54.52,293.61,54.52c20.32,26.77,13.8,84.32-21.83,104.41.39,4.47,8.38,18.78,12.24,24.26,70.83-43.33,54.65-115.28,16.91-156,0,0-38.13,11.11-61.42,44.78C247.19,74.07,256.39,76.53,265.45,79ZM56.53,370.47l85.41,22.68c1-15.85,4.88-28.55,10.34-42.58-5.73-2.77-9.59-6.81-7.28-15.43l57.69-215.32c5.52-15.47,15.16-9.88,51.87,0,20.78,5.57,19.2,5.74,31.63,8.9,3.56-4.93,9.42-26.67,8.91-33.07l-13.23-3.54h0c-26.64-7-112.78-30.22-142.65-38.19,0,0,33.45,22.56,28.16,42.32L100.5,345.76C96.43,361,56.53,370.47,56.53,370.47Z"/></g></svg>