<svg xmlns="http://www.w3.org/2000/svg" viewBox="0 0 512 512"><defs><style>.cls-1{fill:#ff8d00;}</style></defs><g id="mask"><path class="cls-1" d="M220.69,184.32C202.31,164.14,195,147.26,192,136.71h26.63c13.65,30.71,48.76,62.23,82.14,77.89a99.75,99.75,0,0,1-15.87,9.22c-5.47,2.67-8.72,4.22-10.61,5.1-6.67-3.58-26.61-15.67-53.62-44.56Zm84.38-72.51a89.28,89.28,0,0,1-1.87,17.92c62.59,15.35,66.85,64.52,9.35,94-34.1,17.49-47,20.69-65.84,39.63a53.6,53.6,0,0,0,7.21,9.55c3,3.31,7.65,8.93,11,13,17.44-20.62,54.13-35.17,85.1-49.08,102.34-46,42-150.29-47.59-146.66A83.35,83.35,0,0,1,305.07,111.81ZM285.65,361.57c1.28-.18,2.38-.35,3.32-.52-8.85-47.06-29.59-58.77-52-89.47-15.25-28.46-8.51-51.15-5.12-59.23-2.63-2.43-6.28-5.86-9.76-9.33-3.66-3.66-6.6-6.76-8.74-9.06-22.76,30.22-15.46,71.27,3.05,95.41,18.48,23.65,36.25,29.54,44.5,73.56C266.31,362.85,278.36,362.57,285.65,361.57ZM91.3,418.41l85.36-.19a124.38,124.38,0,0,1-2.06-22.09,128.24,128.24,0,0,1,1.5-22.34c-5-1.51-8.49-4.73-8.49-12.4V138.47c1.33-16.36,12.09-13.47,50.1-13.47,20,0,20.13.5,30.41.43a87.43,87.43,0,0,0,1.7-17.47A79.36,79.36,0,0,0,248,91.16H236.9c-27.56.09-116.76,0-147.68,0,0,0,38.16,13.14,38.16,33.6V383.16C127.38,398.92,91.3,418.41,91.3,418.41Zm278-176.57c-3.49,1.86-10.67,5.31-24.83,11-6,2.42-10.53,4.58-13.49,6.09,45.67,25.85,54.83,96.75-15.92,111-19.92,5.78-60.77,5.57-85.91,5.4-.63,2.25-1.92,8.54-1.69,21.59.23,12.8,2.14,19.55,2.67,21.2h62.4C413.59,420.67,477,306.48,369.25,241.84ZM218.73,79.56c5.87-15.33,19.79-27.7,19.79-27.7,26,20.17,34.76,75.48,7.7,104.66a103.12,103.12,0,0,0,9.87,11.62,88.77,88.77,0,0,0,9.06,7.7c53.55-59.4,19.63-123.16-26.63-152.25,0,0-32.08,19.47-46.52,56ZM258.62,430c-6.06,15.07-19.75,27.51-19.75,27.51-25.94-23.16-27.93-56.85-22.05-91.13h0c2.26-20.17,9-33.94,14.49-42.57a68.4,68.4,0,0,0-6.07-6.62c-3.17-3.08-8.13-8.31-11.73-12.15-42.38,70.15-32.59,147.59,25,183.33,0,0,33.32-17.59,49.34-58.37Z"/></g></svg>