<svg id="trace" xmlns="http://www.w3.org/2000/svg" xmlns:xlink="http://www.w3.org/1999/xlink" viewBox="0 0 512 512"><defs><style>.cls-1,.cls-5{fill:#fff;}.cls-1{filter:url(#luminosity-invert-noclip);}.cls-2{fill:url(#linear-gradient);}.cls-3{opacity:0.17;}.cls-4{mask:url(#mask);}</style><linearGradient id="linear-gradient" x1="9.8" y1="1.39" x2="583.7" y2="594.9" gradientUnits="userSpaceOnUse"><stop offset="0" stop-color="#219644"/><stop offset="0.49" stop-color="#127e4f"/><stop offset="1" stop-color="#00615c"/></linearGradient><filter id="luminosity-invert-noclip" x="104.45" y="39.53" width="302.92" height="422.56" filterUnits="userSpaceOnUse" color-interpolation-filters="sRGB"><feColorMatrix values="-1 0 0 0 1 0 -1 0 0 1 0 0 -1 0 1 0 0 0 1 0" result="invert"/><feFlood flood-color="#fff" result="bg"/><feBlend in="invert" in2="bg"/></filter><mask id="mask" x="104.45" y="39.53" width="302.92" height="422.56" maskUnits="userSpaceOnUse"><path class="cls-1" d="M270.1,300.67A196.76,196.76,0,0,0,249,276.79c-6-6.19-10.24-10.56-11.69-13.73l5.25-1.9c1,2,5.43,6.48,10.49,11.69,3.94,4,8.84,9.08,14,14.79C267.1,287.64,272.24,303.48,270.1,300.67Zm-32.9,6.06,5.58,1c.41-2.41-1.42-4.69-13.07-16.27-3.36-3.33-6.45-6.16-7.83-7.94l-4.57,3.19c1.32,1.73,4.61,5,8.41,8.76,4,4,10.8,10.73,11.57,12.39A1.91,1.91,0,0,1,237.2,306.73Zm24.89-191.58c-.13-11.55-1.86-18-1.94-18.25l-5.45,1.49c0,.06,1.62,6.09,1.74,16.82.17,16-2.71,22.24-2.73,22.28l5.07,2.51C258.93,139.71,262.29,132.71,262.09,115.15Zm32.56-1a77.83,77.83,0,0,0-3.27-22.37L286,93.5a72.77,72.77,0,0,1,3,20.55,158.72,158.72,0,0,1-1.86,23.35l5.56,1A159.2,159.2,0,0,0,294.65,114.13ZM238.71,101l0-5.66c-22.54.07-57.06.09-59.73-.14l-.47,5.64c1.93.16,16.15.2,30.34.2C222.37,101,235.89,101,238.71,101Zm-.87,31.31c-.12,0-12-.37-23.76-.63-6.91-.15-12.43-.24-16.41-.26-8.53,0-9.63,0-10.28,2.32l5.46,1.5a2.75,2.75,0,0,1-2,2c2.63-.41,30.12.26,46.83.78ZM225.56,398.81a114.49,114.49,0,0,1-1.74-20.28c.13-16.56,2.13-26,2.16-26.14l-5.53-1.2c-.09.4-2.15,10.08-2.28,27.3A117.69,117.69,0,0,0,220,399.9Zm-26.37,11.94c-4.75-15.2-5.44-23.85-5.06-34.49a268.22,268.22,0,0,1,5.31-40.87l-5.52-1.22a271.46,271.46,0,0,0-5.44,41.88c-.4,11,.34,20.49,5.31,36.39Zm92.09-7.45L290,398.8s.21-1.1-1.26-1.11c-3,0-9,.35-14.49.42-5.76.07-10.31.16-13,.2a6.11,6.11,0,0,0-2.87.81c-1,1,.16,4.87.16,4.87Zm-24.31-44c4.39-.17,9.59-.49,13.58-.82l1.5-.13c25.9-2.14,33.39-4.21,33.39-9.23h-5.66a1.54,1.54,0,0,1,.36-1c-1.21,1.13-7.15,2.85-28.55,4.61l-1.51.13c-8.44.71-18.65,1.07-20,.88,0,0-1.24.11-.61.73l-2,4c.66.67,1,1,4.27,1C262.94,359.41,264.64,359.37,267,359.28ZM268.32,188c-.08-.06-7.31-6-14.69-13.44-7.76-7.79-9.33-12.68-9.38-12.75l-14.93-7.2c.23.3,7,10.12,20.3,24,7.47,7.73,19.93,17.9,20.23,18.15Zm12.31,42.42c-19.61-14.89-24.32-16.4-40-29.69a204.88,204.88,0,0,1-16.69-15c-12.45-12.33-15.76-20.32-15.77-20.4l-2.78.52,2.78-.49-5.57,1c6,17.89,28,33.71,33.51,38.88,13.1,12.34,22.33,20.6,36.72,26.64Zm14.17-1.19c4.79-2.09,13.25-5.26,18.25-8.47,20.53-13.13,23.75-21.64,23.75-21.64l-28.22,18c-2,1.56-6.28,3.6-12.94,6.39-5.19,2.17-30.2,13.32-30.45,13.45,0,0,1.37,6.11,2.58,5.38C279.36,235.36,289.68,231.43,294.8,229.19ZM324.17,247c4.73-2.09,10.61-4.7,17.7-8l2.06-1c11.25-5.25,26.64-12.44,40.33-27.4l-4.17-3.82c-12.93,14.14-27.13,20.77-38.55,26.09l-2.07,1c-7,3.31-12.88,5.9-17.59,8-10.44,4.62-12.94,5.78-13.88,7.72l5.08,2.47a1.52,1.52,0,0,1-.29.44C313.66,251.61,318.77,249.35,324.17,247Z"/></mask></defs><rect class="cls-2" width="512" height="512" rx="90"/><path class="cls-3" d="M118.76,111.87h89.86c10.68-39.09,45.87-61.46,45.87-61.46s36.57,22.12,47.63,60.83c64-8.33,157.63,65.43,62.83,132.21,106.24,58,50.46,167.45-61.83,165.13C290.72,452.86,254.49,473,254.49,473s-31.38-16.71-45.25-63.63h-88.6s32.81-17.72,32.81-32V142.41C153.45,123.81,118.76,111.87,118.76,111.87Zm136,99.46c-.22-.29-10.53,12.07-10.53,31.75,0,24.06,9.4,34.14,9.4,34.14,10.49-14.15,44.11-33.89,44.11-33.89S267.18,227.45,254.8,211.33Zm72.39,20.35c.43.15,44.3-26.94,31.74-52.33-14.55-29.39-57.06-34.43-57.06-34.43-2.27,24.63-30,51.07-30,51.07S290,218.15,327.19,231.68Zm-55.05,65.08s24.11,20.88,30.27,71.34c0,0,56.33-.21,66.32-38.69,12.37-47.74-42.24-72.29-42.24-72.29C289.63,270.93,272.14,296.76,272.14,296.76ZM254.49,76.11s-19.36,18.23-20.63,35.73h41.25C274.34,95.72,254.49,76.11,254.49,76.11Zm0,102.59s19.35-18.22,20.62-35.73H233.86C234.63,159.09,254.49,178.7,254.49,178.7Zm.31,266.22s19.36-18.22,20.63-35.72H234.18C235,425.32,254.8,444.92,254.8,444.92Zm0-131.35s-19.67,21.37-20.62,56.7h41.25C273.71,334.35,254.8,313.57,254.8,313.57ZM238,296.35s-17.4-18.12-17.4-51.57c0-31.16,17.7-48.25,17.7-48.25C211.44,167.06,210,142.41,210,142.41s-20-2.45-20,12.44V357.5c0,13.38,19.64,12.77,19.64,12.77S211.8,334.6,238,296.35Z"/><g class="cls-4"><path class="cls-5" d="M104.45,101h89.86C205,61.9,240.18,39.53,240.18,39.53s36.57,22.11,47.63,60.82c64.05-8.32,157.64,65.44,62.84,132.21,106.23,58,50.46,167.45-61.83,165.14-12.4,44.28-48.64,64.38-48.64,64.38s-31.37-16.71-45.24-63.63h-88.6s32.8-17.72,32.8-32.05V131.52C139.14,112.92,104.45,101,104.45,101ZM240.5,200.45c-.23-.29-10.54,12.07-10.54,31.74,0,24.06,9.41,34.14,9.41,34.14,10.49-14.14,44.11-33.89,44.11-33.89S252.88,216.56,240.5,200.45Zm72.38,20.34c.44.16,44.3-26.94,31.74-52.33C330.07,139.07,287.56,134,287.56,134c-2.26,24.63-30,51.07-30,51.07S275.71,207.26,312.88,220.79Zm-55,65.08s24.11,20.88,30.27,71.34c0,0,56.33-.2,66.31-38.69,12.38-47.73-42.23-72.29-42.23-72.29C275.33,260,257.84,285.87,257.84,285.87ZM240.18,65.23S220.83,83.45,219.56,101h41.25C260,84.83,240.18,65.23,240.18,65.23Zm0,102.58s19.36-18.22,20.63-35.73H219.56C220.33,148.21,240.18,167.81,240.18,167.81ZM240.5,434s19.35-18.22,20.62-35.72H219.87C220.64,414.43,240.5,434,240.5,434Zm0-131.34s-19.67,21.36-20.63,56.69h41.25C259.41,323.47,240.5,302.69,240.5,302.69Zm-16.82-17.23s-17.41-18.12-17.41-51.57c0-31.16,17.7-48.25,17.7-48.25-26.83-29.47-28.28-54.12-28.28-54.12s-20-2.45-20,12.44V346.61c0,13.38,19.65,12.77,19.65,12.77S197.49,323.72,223.68,285.46Z"/></g></svg>