<svg id="trace" xmlns="http://www.w3.org/2000/svg" xmlns:xlink="http://www.w3.org/1999/xlink" viewBox="0 0 512 512"><defs><style>.cls-1,.cls-5{fill:#fff;}.cls-1{filter:url(#luminosity-invert-noclip);}.cls-2{fill:url(#linear-gradient);}.cls-3{opacity:0.21;}.cls-4{mask:url(#mask);}</style><linearGradient id="linear-gradient" x1="9.8" y1="1.39" x2="583.7" y2="594.9" gradientUnits="userSpaceOnUse"><stop offset="0" stop-color="#ff9a45"/><stop offset="0.41" stop-color="#f6822f"/><stop offset="1" stop-color="#e65909"/></linearGradient><filter id="luminosity-invert-noclip" x="104.45" y="39.44" width="302.92" height="422.56" filterUnits="userSpaceOnUse" color-interpolation-filters="sRGB"><feColorMatrix values="-1 0 0 0 1 0 -1 0 0 1 0 0 -1 0 1 0 0 0 1 0" result="invert"/><feFlood flood-color="#fff" result="bg"/><feBlend in="invert" in2="bg"/></filter><mask id="mask" x="104.45" y="39.44" width="302.92" height="422.56" maskUnits="userSpaceOnUse"><path class="cls-1" d="M270.1,300.58A196.34,196.34,0,0,0,249,276.71c-6-6.19-10.24-10.56-11.69-13.73l5.25-1.9c1,2,5.43,6.48,10.49,11.68,3.94,4.05,8.84,9.08,14,14.8C267.1,287.56,272.24,303.4,270.1,300.58Zm-32.9,6.06,5.58,1c.41-2.41-1.42-4.69-13.07-16.26-3.36-3.33-6.45-6.17-7.83-7.94l-4.57,3.18c1.32,1.73,4.61,5,8.41,8.77,4,4,10.8,10.73,11.57,12.39A2,2,0,0,1,237.2,306.64Zm24.89-191.58c-.13-11.54-1.86-18-1.94-18.25l-5.45,1.5c0,.06,1.62,6.08,1.74,16.82.17,15.94-2.71,22.23-2.73,22.27l5.07,2.51C258.93,139.62,262.29,132.63,262.09,115.06Zm32.56-1a77.67,77.67,0,0,0-3.27-22.37L286,93.42A72.77,72.77,0,0,1,289,114a158.47,158.47,0,0,1-1.86,23.34l5.56,1A159,159,0,0,0,294.65,114.05Zm-55.94-13.18,0-5.65c-22.54.07-57.06.09-59.73-.14l-.47,5.64c1.93.16,16.15.2,30.34.2C222.37,100.92,235.89,100.88,238.71,100.87Zm-.87,31.32c-.12,0-12-.37-23.76-.63-6.91-.16-12.43-.25-16.41-.27-8.53,0-9.63,0-10.28,2.33l5.46,1.5a2.77,2.77,0,0,1-2,1.95c2.63-.42,30.12.25,46.83.77ZM225.56,398.72a114.17,114.17,0,0,1-1.74-20.27C224,361.88,226,352.4,226,352.31l-5.53-1.21c-.09.41-2.15,10.09-2.28,27.31a117.64,117.64,0,0,0,1.84,21.4Zm-26.37,11.95c-4.75-15.2-5.44-23.85-5.06-34.5a268.57,268.57,0,0,1,5.31-40.87l-5.52-1.22c-1.31,5.92-4.83,25-5.44,41.89-.4,11,.34,20.49,5.31,36.38Zm92.09-7.45-1.25-4.5s.21-1.1-1.26-1.11c-3,0-9,.34-14.49.41l-13,.2a6.36,6.36,0,0,0-2.87.81c-1,1,.16,4.88.16,4.88Zm-24.31-44c4.39-.17,9.59-.48,13.58-.82l1.5-.12c25.9-2.14,33.39-4.21,33.39-9.23h-5.66a1.49,1.49,0,0,1,.36-1c-1.21,1.13-7.15,2.84-28.55,4.61l-1.51.13c-8.44.71-18.65,1.06-20,.88,0,0-1.24.11-.61.73l-2,4c.66.66,1,1,4.27,1C262.94,359.33,264.64,359.28,267,359.19Zm1.35-171.32c-.08-.06-7.31-6-14.69-13.43-7.76-7.8-9.33-12.69-9.38-12.76l-14.93-7.19c.23.3,7,10.11,20.3,23.94,7.47,7.74,19.93,17.91,20.23,18.16Zm12.31,42.43c-19.61-14.89-24.32-16.4-40-29.69a205.38,205.38,0,0,1-16.69-15c-12.45-12.32-15.76-20.31-15.77-20.39l-2.78.51,2.78-.48-5.57,1c6,17.9,28,33.72,33.51,38.88,13.1,12.35,22.33,20.61,36.72,26.64Zm14.17-1.19c4.79-2.09,13.25-5.27,18.25-8.47C333.58,207.5,336.8,199,336.8,199l-28.22,18c-2,1.55-6.28,3.6-12.94,6.39-5.19,2.17-30.2,13.32-30.45,13.44,0,0,1.37,6.12,2.58,5.39C279.36,235.28,289.68,231.35,294.8,229.11Zm29.37,17.76c4.73-2.09,10.61-4.69,17.7-8l2.06-1c11.25-5.24,26.64-12.43,40.33-27.39l-4.17-3.82c-12.93,14.13-27.13,20.76-38.55,26.09l-2.07,1c-7,3.3-12.88,5.89-17.59,8-10.44,4.62-12.94,5.79-13.88,7.73l5.08,2.47a1.73,1.73,0,0,1-.29.44C313.66,251.52,318.77,249.27,324.17,246.87Z"/></mask></defs><rect class="cls-2" width="512" height="512" rx="90"/><path class="cls-3" d="M118.76,111.78h89.86c10.68-39.08,45.87-61.45,45.87-61.45s36.57,22.12,47.63,60.83c64-8.33,157.63,65.43,62.83,132.21,106.24,58,50.46,167.44-61.83,165.13-12.4,44.28-48.63,64.39-48.63,64.39s-31.38-16.72-45.25-63.64h-88.6s32.81-17.72,32.81-32V142.32C153.45,123.72,118.76,111.78,118.76,111.78Zm136,99.47c-.22-.29-10.53,12.07-10.53,31.75,0,24.05,9.4,34.14,9.4,34.14,10.49-14.15,44.11-33.89,44.11-33.89S267.18,227.36,254.8,211.25Zm72.39,20.34c.43.16,44.3-26.94,31.74-52.32-14.55-29.39-57.06-34.43-57.06-34.43-2.27,24.63-30,51.06-30,51.06S290,218.06,327.19,231.59Zm-55.05,65.08s24.11,20.88,30.27,71.34c0,0,56.33-.2,66.32-38.68C381.1,281.59,326.49,257,326.49,257,289.63,270.85,272.14,296.67,272.14,296.67ZM254.49,76s-19.36,18.22-20.63,35.73h41.25C274.34,95.63,254.49,76,254.49,76Zm0,102.58s19.35-18.22,20.62-35.72H233.86C234.63,159,254.49,178.61,254.49,178.61Zm.31,266.23s19.36-18.22,20.63-35.73H234.18C235,425.23,254.8,444.84,254.8,444.84Zm0-131.35s-19.67,21.37-20.62,56.7h41.25C273.71,334.27,254.8,313.49,254.8,313.49ZM238,296.27s-17.4-18.13-17.4-51.57c0-31.16,17.7-48.25,17.7-48.25C211.44,167,210,142.33,210,142.33s-20-2.46-20,12.43V357.41c0,13.39,19.64,12.78,19.64,12.78S211.8,334.52,238,296.27Z"/><g class="cls-4"><path class="cls-5" d="M104.45,100.9h89.86C205,61.81,240.18,39.44,240.18,39.44s36.57,22.12,47.63,60.83c64.05-8.33,157.64,65.43,62.84,132.21,106.23,58,50.46,167.44-61.83,165.13C276.42,441.89,240.18,462,240.18,462s-31.37-16.71-45.24-63.63h-88.6s32.8-17.72,32.8-32.05V131.44C139.14,112.84,104.45,100.9,104.45,100.9ZM240.5,200.36c-.23-.29-10.54,12.07-10.54,31.75,0,24.06,9.41,34.14,9.41,34.14,10.49-14.15,44.11-33.89,44.11-33.89S252.88,216.48,240.5,200.36Zm72.38,20.35c.44.15,44.3-26.94,31.74-52.33C330.07,139,287.56,134,287.56,134c-2.26,24.63-30,51.06-30,51.06S275.71,207.18,312.88,220.71Zm-55,65.07s24.11,20.89,30.27,71.35c0,0,56.33-.21,66.31-38.69,12.38-47.74-42.23-72.29-42.23-72.29C275.33,260,257.84,285.78,257.84,285.78ZM240.18,65.14s-19.35,18.23-20.62,35.73h41.25C260,84.75,240.18,65.14,240.18,65.14Zm0,102.59S259.54,149.5,260.81,132H219.56C220.33,148.12,240.18,167.73,240.18,167.73ZM240.5,434s19.35-18.22,20.62-35.73H219.87C220.64,414.35,240.5,434,240.5,434Zm0-131.35S220.83,324,219.87,359.3h41.25C259.41,323.38,240.5,302.6,240.5,302.6Zm-16.82-17.22s-17.41-18.13-17.41-51.57c0-31.16,17.7-48.25,17.7-48.25-26.83-29.47-28.28-54.12-28.28-54.12s-20-2.46-20,12.44V346.53c0,13.38,19.65,12.77,19.65,12.77S197.49,323.63,223.68,285.38Z"/></g></svg>