<svg xmlns="http://www.w3.org/2000/svg" xmlns:xlink="http://www.w3.org/1999/xlink" viewBox="0 0 512 512"><defs><style>.cls-1{fill:url(#linear-gradient);}.cls-2{fill:#fff;}</style><linearGradient id="linear-gradient" x1="-18.45" y1="-27.82" x2="621.31" y2="633.79" gradientUnits="userSpaceOnUse"><stop offset="0" stop-color="#219644"/><stop offset="0.49" stop-color="#127e4f"/><stop offset="1" stop-color="#00615c"/></linearGradient></defs><g id="shape"><rect class="cls-1" width="512" height="512"/><path class="cls-2" d="M242.1,177.85c-12.53-24.26-15.21-42.45-15.41-53.42l25.72,6.89c5.24,33.2,31,72.72,59.19,96.5a101.26,101.26,0,0,1-17.72,4.8c-6,1.16-9.52,1.81-11.56,2.18-5.52-5.19-21.65-22-40.26-56.93Zm100.27-48.21a88.82,88.82,0,0,1-6.44,16.83c56.49,31,47.88,79.62-15.3,93.22-37.46,8.07-50.71,7.83-73.85,21.24A53.8,53.8,0,0,0,251.27,272c2,4,5.08,10.61,7.26,15.41,22.18-15.4,61.39-20,94.9-25.38,110.75-17.9,79.5-134.29-8-154A83.15,83.15,0,0,1,342.37,129.64ZM259,365.87c1.28.16,2.39.28,3.34.35.2-58.19-13.37-64.41-27.07-99.87-7.36-31.44,5-51.62,10.39-58.54-1.91-3-4.56-7.29-7-11.54-2.59-4.48-4.63-8.23-6.1-11-29.81,23.3-33.38,64.85-21.75,93,11.73,27.63,27.37,37.91,23.95,82.57C240,362.1,251.67,364.94,259,365.87Zm-202.44,4.6L139,392.38a125.4,125.4,0,0,1,3.73-21.87A128.19,128.19,0,0,1,150,349.32c-4.4-2.75-7-6.77-5-14.18l57.69-215.32c5.52-15.46,15.16-9.88,51.87,0,19.36,5.19,19.32,5.69,29.27,8.29A87.37,87.37,0,0,0,290,111.62a79.39,79.39,0,0,0,2.6-16.69l-10.72-2.87h0c-26.64-7-112.78-30.22-142.65-38.19,0,0,33.45,22.56,28.16,42.32L100.5,345.76C96.43,361,56.53,370.47,56.53,370.47Zm314.18-98.61c-3.85.89-11.68,2.36-26.83,4.2-6.45.78-11.36,1.69-14.6,2.39,37.42,36.79,27.91,107.64-44.12,103.14-20.74.42-60.14-10.36-84.38-17-1.19,2-4.07,7.75-7.22,20.42-3.09,12.42-3,19.44-2.91,21.17l60.27,16.16C367.26,456.07,458.09,362.19,370.71,271.86ZM267.32,76.15c9.64-13.29,26.29-21.63,26.29-21.63,19.9,26.21,14,81.9-19.65,103.08a102.22,102.22,0,0,0,6.53,13.78,89.59,89.59,0,0,0,6.75,9.78c67.11-43.52,50.84-113.88,13.69-153.95,0,0-36,10.51-59.43,42ZM215.15,425c-9.77,13-26.21,21.45-26.21,21.45-19.06-29.09-12.26-62.14,2.29-93.73h0c7.41-18.9,17.49-30.46,25-37.37a66.94,66.94,0,0,0-4.14-8c-2.27-3.8-5.71-10.14-8.19-14.77-59.1,56.79-69.68,134.12-23.29,183.55,0,0,36.74-8.37,62.77-43.61Z"/></g></svg>