<svg xmlns="http://www.w3.org/2000/svg" xmlns:xlink="http://www.w3.org/1999/xlink" viewBox="0 0 512 512"><defs><style>.cls-1{fill:url(#linear-gradient);}.cls-2{fill:#008955;}.cls-3{fill:#fff;}</style><linearGradient id="linear-gradient" x1="9.8" y1="1.39" x2="583.7" y2="594.9" gradientUnits="userSpaceOnUse"><stop offset="0" stop-color="#ff9a45"/><stop offset="0.41" stop-color="#f6822f"/><stop offset="1" stop-color="#e65909"/></linearGradient></defs><g id="mask"><rect class="cls-1" width="512" height="512" rx="90"/><path class="cls-2" d="M101.92,97.9h98.85c11.75-43,50.45-67.61,50.45-67.61s40.23,24.34,52.4,66.91c70.45-9.15,173.4,72,69.12,145.43,116.85,63.82,55.5,184.2-68,181.65-13.64,48.71-53.5,70.83-53.5,70.83s-34.51-18.39-49.76-70H104s36.08-19.49,36.08-35.25V131.49C140.08,111,101.92,97.9,101.92,97.9ZM251.57,207.31C251.32,207,240,220.58,240,242.23c0,26.46,10.34,37.55,10.34,37.55,11.55-15.56,48.53-37.28,48.53-37.28S265.19,225,251.57,207.31Zm79.63,22.38c.47.17,48.72-29.64,34.91-57.56-16-32.33-62.77-37.88-62.77-37.88-2.49,27.1-33,56.17-33,56.17S290.3,214.8,331.2,229.69Zm-60.55,71.58s26.52,23,33.29,78.48c0,0,62-.22,72.95-42.56,13.61-52.51-46.46-79.52-46.46-79.52C289.89,272.86,270.65,301.27,270.65,301.27ZM251.22,58.57s-21.29,20-22.69,39.29h45.38C273.07,80.13,251.22,58.57,251.22,58.57Zm0,112.84s21.29-20,22.69-39.3H228.53C229.38,149.84,251.22,171.41,251.22,171.41Zm.35,292.84s21.29-20,22.69-39.29H228.88C229.73,442.69,251.57,464.25,251.57,464.25Zm0-144.48s-21.64,23.5-22.69,62.37h45.38C272.37,342.63,251.57,319.77,251.57,319.77Zm-18.5-18.94s-19.15-19.94-19.15-56.73c0-34.28,19.47-53.08,19.47-53.08-29.51-32.41-31.11-59.53-31.11-59.53s-22-2.7-22,13.68V368.09c0,14.72,21.61,14.05,21.61,14.05S204.27,342.91,233.07,300.83Z"/><path class="cls-3" d="M215.33,176.42c-18.38-20.18-25.68-37-28.72-47.61h26.64C226.9,159.52,262,191,295.39,206.7a99,99,0,0,1-15.87,9.22c-5.47,2.67-8.72,4.22-10.61,5.1-6.67-3.58-26.61-15.67-53.62-44.56Zm84.38-72.51a88.33,88.33,0,0,1-1.88,17.92c62.6,15.35,66.86,64.52,9.36,94-34.1,17.48-47,20.68-65.84,39.62a53.6,53.6,0,0,0,7.21,9.55c3,3.32,7.65,8.93,11,13,17.44-20.61,54.13-35.17,85.1-49.08C447,183,386.69,78.66,297.06,82.28A82.84,82.84,0,0,1,299.71,103.91ZM280.29,353.67c1.28-.17,2.37-.35,3.32-.52-14.87-56.26-29.59-58.76-52-89.46-15.25-28.46-8.51-51.16-5.12-59.24-2.63-2.43-6.29-5.86-9.76-9.33-3.66-3.66-6.6-6.75-8.74-9.06-22.76,30.22-15.46,71.27,3,95.42,18.48,23.64,36.25,29.53,44.5,73.55C261,355,273,354.67,280.29,353.67ZM85.93,410.51l85.37-.19a124.38,124.38,0,0,1-2.06-22.09,128.24,128.24,0,0,1,1.5-22.34c-5-1.51-8.5-4.73-8.5-12.4V130.57c1.33-16.36,12.08-13.47,50.1-13.47,20,0,20.12.5,30.41.43a88.18,88.18,0,0,0,1.7-17.47,79.36,79.36,0,0,0-1.82-16.8H231.54c-27.56.09-116.76,0-147.68,0,0,0,38.16,13.13,38.16,33.59V375.26C122,391,85.93,410.51,85.93,410.51Zm278-176.57c-3.49,1.86-10.67,5.31-24.83,11-6,2.43-10.53,4.58-13.49,6.1,45.67,25.84,54.83,96.74-15.92,111-19.92,5.77-60.77,5.56-85.91,5.39-.63,2.25-1.92,8.54-1.69,21.59.23,12.8,2.14,19.55,2.67,21.2l62.4,0C408.23,412.77,471.67,298.59,363.89,233.94ZM213.37,71.66C219.23,56.33,233.16,44,233.16,44c26,20.16,34.76,75.47,7.7,104.65a103.12,103.12,0,0,0,9.87,11.62,88.77,88.77,0,0,0,9.06,7.7c53.55-59.4,19.63-123.15-26.63-152.24,0,0-32.08,19.47-46.52,56Zm39.89,350.49c-6.07,15.06-19.75,27.5-19.75,27.5-25.94-23.16-27.93-56.84-22-91.13h0c2.26-20.17,9-33.94,14.49-42.57a67.34,67.34,0,0,0-6.07-6.61c-3.17-3.09-8.13-8.32-11.73-12.15-42.38,70.15-32.59,147.58,25,183.32,0,0,33.32-17.59,49.34-58.36Z"/></g></svg>