<svg xmlns="http://www.w3.org/2000/svg" xmlns:xlink="http://www.w3.org/1999/xlink" viewBox="0 0 512 512"><defs><style>.cls-1{fill:url(#linear-gradient);}.cls-2{opacity:0.33;}.cls-3{fill:#fff;}</style><linearGradient id="linear-gradient" x1="-18.45" y1="-27.82" x2="621.31" y2="633.79" gradientUnits="userSpaceOnUse"><stop offset="0" stop-color="#219644"/><stop offset="0.49" stop-color="#127e4f"/><stop offset="1" stop-color="#00615c"/></linearGradient></defs><g id="shape"><rect class="cls-1" width="512" height="512"/><path class="cls-2" d="M146.58,66.61l95.47,25.58C264.53,53.7,308.29,40,308.29,40s32.56,33.92,33.29,78.19C412,127.53,490.44,232.55,370.7,276.51c96.36,91.88,5.94,192.28-112.71,157.86-25.78,43.51-70,54.56-70,54.56S159.4,462.24,158,408.44L63.89,383.21s39.9-9.48,44-24.71l66.88-249.57C180,89.17,146.58,66.61,146.58,66.61ZM262.81,211c-.16-.38-14.63,9.82-20.24,30.73-6.85,25.56.28,38.95.28,38.95,15.17-12,56.51-23.45,56.51-23.45S271.37,231.67,262.81,211Zm71.12,42.22c.41.29,54.73-16,48.61-46.56-7.08-35.37-50.82-52.83-50.82-52.83-9.42,25.53-46.41,45.72-46.41,45.72S298.28,228.29,333.93,253.25Zm-77,53.48s19.67,29,11.85,84.41c0,0,59.91,15.83,81.47-22.22,26.75-47.2-24.29-88.84-24.29-88.84C282.85,284.26,256.91,306.73,256.91,306.73ZM301,67.26s-25.75,13.85-32.09,32.09l43.83,11.74C316.49,93.75,301,67.26,301,67.26Zm-29.21,109s25.75-13.85,32.09-32.09L260,132.43C256.25,149.78,271.76,176.26,271.76,176.26Zm-75.46,283s25.75-13.85,32.09-32.09l-43.83-11.75C180.79,432.73,196.3,459.22,196.3,459.22Zm37.4-139.56s-27,17.1-38.06,54.37l43.83,11.74C247.87,347.12,233.7,319.66,233.7,319.66Zm-13-23.09s-13.33-24.21-3.81-59.75c8.87-33.11,32.54-46.23,32.54-46.23-20.12-39-14.64-65.55-14.64-65.55s-20.53-8.3-24.77,7.52L152.36,347.88c-3.81,14.22,17.24,19.17,17.24,19.17S182,329.76,220.73,296.57Z"/><path class="cls-3" d="M242.66,173.22c-12.52-24.26-15.21-42.45-15.41-53.42L253,126.69c5.24,33.2,31,72.73,59.19,96.5a100.72,100.72,0,0,1-17.72,4.8c-6,1.16-9.52,1.81-11.56,2.18-5.52-5.19-21.65-22-40.26-56.93ZM342.94,125a88.79,88.79,0,0,1-6.45,16.83c56.49,31,47.88,79.62-15.3,93.22-37.46,8.07-50.71,7.83-73.85,21.24a53.8,53.8,0,0,0,4.49,11.09c2,4,5.09,10.61,7.26,15.41,22.18-15.4,61.39-20,94.9-25.38,110.75-17.9,79.5-134.29-8-154A83,83,0,0,1,342.94,125Zm-83.4,236.23c1.28.16,2.38.28,3.34.35.2-58.19-13.38-64.41-27.07-99.87-7.37-31.44,5-51.61,10.38-58.54-1.91-3-4.55-7.29-7-11.54-2.59-4.48-4.63-8.23-6.1-11-29.81,23.3-33.38,64.85-21.75,93,11.73,27.63,27.37,37.91,23.95,82.57C240.52,357.47,252.23,360.31,259.54,361.24Zm-202.45,4.6,82.5,21.91a139.94,139.94,0,0,1,11-43.06c-4.41-2.75-7-6.77-5-14.18l57.69-215.32c5.52-15.46,15.16-9.88,51.88,0,19.35,5.19,19.31,5.69,29.26,8.29A87.37,87.37,0,0,0,290.55,107a79.39,79.39,0,0,0,2.6-16.69l-10.72-2.87h0c-26.64-7-112.78-30.22-142.65-38.19,0,0,33.45,22.56,28.16,42.32L101.07,341.13C97,356.35,57.09,365.84,57.09,365.84Zm314.18-98.61c-3.85.89-11.67,2.36-26.83,4.2-6.44.78-11.36,1.69-14.6,2.39,37.42,36.79,27.92,107.64-44.12,103.14-20.74.42-60.14-10.36-84.38-17-1.19,2-4.07,7.75-7.22,20.42-3.09,12.42-3,19.44-2.91,21.17l60.27,16.16C367.82,451.44,458.65,357.56,371.27,267.23ZM267.88,71.52c9.64-13.29,26.29-21.63,26.29-21.63,19.9,26.21,14.05,81.9-19.65,103.08a103.45,103.45,0,0,0,6.53,13.78,88.25,88.25,0,0,0,6.76,9.78C354.91,133,338.64,62.65,301.49,22.58c0,0-36,10.51-59.43,42ZM215.71,420.39c-9.76,13-26.2,21.45-26.2,21.45-19.07-29.09-12.26-62.14,2.28-93.73h0c7.41-18.9,17.49-30.45,25-37.37a68.86,68.86,0,0,0-4.15-8c-2.27-3.8-5.71-10.14-8.19-14.77-59.09,56.79-69.68,134.12-23.28,183.55,0,0,36.73-8.37,62.76-43.61Z"/></g></svg>