<svg xmlns="http://www.w3.org/2000/svg" xmlns:xlink="http://www.w3.org/1999/xlink" viewBox="0 0 512 512"><defs><style>.cls-1{fill:url(#linear-gradient);}.cls-2{fill:url(#linear-gradient-2);}.cls-3{fill:url(#linear-gradient-3);}.cls-4{fill:url(#linear-gradient-4);}.cls-5{fill:url(#linear-gradient-5);}.cls-6{fill:url(#linear-gradient-6);}.cls-7{fill:url(#linear-gradient-7);}.cls-8{fill:url(#linear-gradient-8);}.cls-9{fill:url(#linear-gradient-9);}</style><linearGradient id="linear-gradient" x1="147.65" y1="181.29" x2="262.12" y2="299.67" gradientUnits="userSpaceOnUse"><stop offset="0" stop-color="#219644"/><stop offset="0.49" stop-color="#127e4f"/><stop offset="1" stop-color="#00615c"/></linearGradient><linearGradient id="linear-gradient-2" x1="185.9" y1="387.3" x2="220.43" y2="423.01" xlink:href="#linear-gradient"/><linearGradient id="linear-gradient-3" x1="254.5" y1="130.07" x2="289.03" y2="165.78" xlink:href="#linear-gradient"/><linearGradient id="linear-gradient-4" x1="207.91" y1="320.31" x2="250.16" y2="364" xlink:href="#linear-gradient"/><linearGradient id="linear-gradient-5" x1="274.38" y1="83.41" x2="308.91" y2="119.13" xlink:href="#linear-gradient"/><linearGradient id="linear-gradient-6" x1="61.91" y1="55.28" x2="514.35" y2="523.17" xlink:href="#linear-gradient"/><linearGradient id="linear-gradient-7" x1="297.75" y1="168.35" x2="366.02" y2="238.96" xlink:href="#linear-gradient"/><linearGradient id="linear-gradient-8" x1="235.26" y1="220.93" x2="282.83" y2="270.12" xlink:href="#linear-gradient"/><linearGradient id="linear-gradient-9" x1="255.29" y1="281.1" x2="344.82" y2="373.69" xlink:href="#linear-gradient"/></defs><g id="shape"><path class="cls-1" d="M219.58,281s-12.12-22-3.46-54.32c8.06-30.1,29.58-42,29.58-42C227.41,149.22,232.39,125,232.39,125s-18.66-7.54-22.51,6.84L157.43,327.63c-3.47,12.92,15.67,17.42,15.67,17.42S184.39,311.15,219.58,281Z"/><path class="cls-2" d="M197.38,428.84s23.41-12.59,29.17-29.17L186.7,389C183.27,404.76,197.38,428.84,197.38,428.84Z"/><path class="cls-3" d="M295.15,142.43,255.3,131.76C251.87,147.53,266,171.6,266,171.6S289.39,159,295.15,142.43Z"/><path class="cls-4" d="M196.77,351.39l39.85,10.68c7.64-35.14-5.25-60.1-5.25-60.1S206.84,317.51,196.77,351.39Z"/><path class="cls-5" d="M292.53,72.52s-23.41,12.59-29.17,29.17l39.85,10.67C306.63,96.59,292.53,72.52,292.53,72.52Z"/><path class="cls-6" d="M256,0h0C114.61,0,0,114.62,0,256H0C0,397.39,114.61,512,256,512h0c141.39,0,256-114.61,256-256h0C512,114.62,397.39,0,256,0Zm99.92,262.74c87.6,83.53,5.4,174.8-102.46,143.51-23.44,39.56-63.65,49.6-63.65,49.6s-26-24.26-27.23-73.17L77,359.75s36.27-8.63,40-22.47L177.77,110.4c4.81-18-25.6-38.48-25.6-38.48L239,95.18c20.43-35,60.21-47.49,60.21-47.49s29.6,30.83,30.26,71.08C393.46,127.31,464.77,222.78,355.92,262.74Z"/><path class="cls-7" d="M320.48,151.24c-8.56,23.21-42.18,41.56-42.18,41.56s11.78,26.1,44.19,48.8c.38.26,49.76-14.56,44.2-42.33C360.25,167.11,320.48,151.24,320.48,151.24Z"/><path class="cls-8" d="M257.83,203.21c-.14-.34-13.3,8.93-18.39,27.94-6.23,23.24.25,35.41.25,35.41,13.8-10.95,51.38-21.32,51.38-21.32S265.62,222,257.83,203.21Z"/><path class="cls-9" d="M315.23,266c-39.17,3.8-62.75,24.22-62.75,24.22s17.88,26.41,10.77,76.74c0,0,54.46,14.39,74.07-20.2C361.63,303.84,315.23,266,315.23,266Z"/></g></svg>