<svg xmlns="http://www.w3.org/2000/svg" xmlns:xlink="http://www.w3.org/1999/xlink" viewBox="0 0 512 512"><defs><style>.cls-1,.cls-5{fill:#fff;}.cls-1{filter:url(#luminosity-invert-noclip);}.cls-2{fill:url(#linear-gradient);}.cls-3{opacity:0.17;}.cls-4{mask:url(#mask);}</style><linearGradient id="linear-gradient" x1="61.91" y1="55.28" x2="514.35" y2="523.17" gradientUnits="userSpaceOnUse"><stop offset="0" stop-color="#219644"/><stop offset="0.49" stop-color="#127e4f"/><stop offset="1" stop-color="#00615c"/></linearGradient><filter id="luminosity-invert-noclip" x="74.33" y="45.02" width="335.26" height="408.16" filterUnits="userSpaceOnUse" color-interpolation-filters="sRGB"><feColorMatrix values="-1 0 0 0 1 0 -1 0 0 1 0 0 -1 0 1 0 0 0 1 0" result="invert"/><feFlood flood-color="#fff" result="bg"/><feBlend in="invert" in2="bg"/></filter><mask id="mask" x="74.33" y="45.02" width="335.26" height="408.16" maskUnits="userSpaceOnUse"><path class="cls-1" d="M257.83,305a197.27,197.27,0,0,0-14.19-28.52c-4.21-7.54-7.16-12.85-7.73-16.29l5.56-.47c.5,2.19,3.56,7.66,7.11,14,2.76,4.93,6.18,11.06,9.72,17.92C258.3,291.65,259.17,308.29,257.83,305Zm-33.35-2.66,5.13,2.37c1-2.22-.15-4.9-8.41-19.09-2.38-4.09-4.63-7.63-5.51-9.7l-5.24,1.9c.84,2,3.16,6,5.86,10.64,2.86,4.92,7.65,13.16,8,15A2,2,0,0,1,224.48,302.35ZM298.1,123.74C301,112.56,301,105.89,301,105.61l-5.65,0c0,.06,0,6.3-2.68,16.7-3.95,15.45-8.36,20.78-8.39,20.81l4.25,3.74C288.69,146.64,293.75,140.76,298.1,123.74Zm31.72,7.44a77.73,77.73,0,0,0,2.63-22.45l-5.65.29a72.49,72.49,0,0,1-2.42,20.63,157,157,0,0,1-7.84,22.06l5.1,2.43A156.53,156.53,0,0,0,329.82,131.18ZM279.19,104l1.45-5.47C258.85,92.75,225.5,83.83,223,82.92l-1.91,5.32c1.83.66,15.55,4.38,29.26,8.05C263.4,99.8,276.47,103.26,279.19,104Zm-8.94,30c-.12,0-11.5-3.47-22.79-6.76-6.63-1.94-12-3.46-15.78-4.51-8.23-2.25-9.29-2.53-10.53-.41l4.88,2.86a2.73,2.73,0,0,1-2.45,1.36c2.64.28,29,8,45,12.87ZM189.4,388.28a115.07,115.07,0,0,1,3.57-20c4.41-16,8.8-24.61,8.85-24.7l-5-2.59c-.19.37-4.69,9.18-9.27,25.78a118.32,118.32,0,0,0-3.76,21.16ZM160.84,393c-.66-15.91.91-24.45,4-34.63a268.89,268.89,0,0,1,15.7-38.1l-5-2.61a271.83,271.83,0,0,0-16.1,39.05c-3.23,10.53-5,19.88-4.28,36.52Zm90.88,16.64,0-4.67s.48-1-.94-1.4c-2.93-.79-8.8-2-14.1-3.35-5.58-1.42-10-2.51-12.63-3.17a6,6,0,0,0-3,0c-1.22.72-1.12,4.74-1.12,4.74Zm-12.08-48.82c4.28,1,9.38,2,13.32,2.73l1.48.26c25.57,4.64,33.34,4.58,34.64-.27l-5.46-1.46a1.54,1.54,0,0,1,.61-.9c-1.47.78-7.65.9-28.78-2.93L254,358c-8.33-1.5-18.29-3.8-19.57-4.33,0,0-1.22-.22-.77.55l-3,3.33c.47.82.7,1.2,3.87,2.06C235.71,359.9,237.36,360.3,239.64,360.81Zm45.63-165.13c0-.08-5.5-7.71-10.71-16.78-5.48-9.54-5.72-14.67-5.76-14.75l-12.55-10.81c.14.35,4.1,11.57,13.41,28.38,5.21,9.4,14.61,22.46,14.84,22.78Zm.91,44.17c-15.08-19.46-19.24-22.14-30.91-39A205.52,205.52,0,0,1,243,182c-8.83-15.13-10-23.7-10-23.79l-2.82-.22,2.82.26-5.63-.51c1.15,18.83,18.35,39.82,22.3,46.22,9.46,15.32,16.24,25.69,28.58,35.24Zm14,2.52c5.16-.79,14.15-1.66,19.81-3.46,23.23-7.38,28.55-14.76,28.55-14.76l-31.92,10.08c-2.34,1-7,1.85-14.16,2.83-5.57.75-32.62,5.05-32.89,5.1,0,0-.26,6.26,1.1,5.87C283.67,244.33,294.66,243.21,300.19,242.37ZM324,267.13c5.11-.8,11.47-1.79,19.18-3.17l2.24-.4c12.22-2.16,28.95-5.12,46-16l-3-4.77c-16.14,10.31-31.58,13-44,15.23l-2.25.4c-7.65,1.37-14,2.36-19.05,3.15-11.28,1.76-14,2.24-15.41,3.87l4.27,3.7a1.51,1.51,0,0,1-.4.35C312.6,268.9,318.12,268,324,267.13Z"/></mask></defs><g id="shape"><rect class="cls-2" width="512" height="512" rx="256"/><path class="cls-3" d="M160.5,83.47l86.8,23.26c20.43-35,60.21-47.49,60.21-47.49s29.6,30.83,30.27,71.08c64,8.54,135.33,104,26.48,144,87.59,83.53,5.39,174.8-102.47,143.51-23.44,39.56-63.64,49.6-63.64,49.6s-26-24.26-27.23-73.17L85.33,371.3s36.27-8.63,40-22.47L186.1,122C190.92,104,160.5,83.47,160.5,83.47ZM266.17,214.76c-.14-.34-13.3,8.93-18.4,27.94-6.22,23.24.25,35.41.25,35.41,13.8-10.95,51.38-21.32,51.38-21.32S274,233.53,266.17,214.76Zm64.65,38.39c.38.26,49.76-14.56,44.2-42.33-6.44-32.16-46.2-48-46.2-48-8.56,23.21-42.19,41.57-42.19,41.57S298.41,230.46,330.82,253.15Zm-70,48.61s17.88,26.41,10.77,76.75c0,0,54.47,14.38,74.07-20.21,24.31-42.9-22.09-80.76-22.09-80.76C284.39,281.34,260.81,301.76,260.81,301.76ZM300.86,84.07s-23.41,12.59-29.17,29.17l39.85,10.68C315,108.14,300.86,84.07,300.86,84.07Zm-26.55,99.09s23.41-12.6,29.17-29.17l-39.85-10.68C260.2,159.08,274.31,183.16,274.31,183.16Zm-68.6,257.23s23.41-12.59,29.17-29.17L195,400.54C191.6,416.31,205.71,440.39,205.71,440.39Zm34-126.87s-24.53,15.55-34.6,49.43L245,373.62C252.59,338.48,239.71,313.52,239.71,313.52Zm-11.79-21s-12.12-22-3.47-54.32c8.07-30.1,29.59-42,29.59-42-18.29-35.42-13.31-59.6-13.31-59.6s-18.67-7.54-22.52,6.84L165.76,339.18c-3.46,12.93,15.67,17.42,15.67,17.42S192.73,322.7,227.92,292.53Z"/><g class="cls-4"><path class="cls-5" d="M149.5,69.26l86.8,23.25C256.73,57.52,296.51,45,296.51,45s29.6,30.83,30.27,71.09c64,8.53,135.33,104,26.48,144,87.59,83.53,5.39,174.8-102.47,143.51-23.44,39.56-63.64,49.6-63.64,49.6s-26-24.26-27.23-73.17L74.33,357.08s36.27-8.63,40-22.47L175.1,107.73C179.92,89.77,149.5,69.26,149.5,69.26ZM255.17,200.54c-.14-.33-13.3,8.94-18.4,27.94-6.22,23.24.25,35.41.25,35.41,13.8-10.95,51.38-21.32,51.38-21.32S263,219.31,255.17,200.54Zm64.65,38.39c.38.26,49.76-14.56,44.2-42.33-6.44-32.16-46.2-48-46.2-48-8.56,23.21-42.19,41.57-42.19,41.57S287.41,216.24,319.82,238.93Zm-70,48.61s17.88,26.41,10.77,76.75c0,0,54.47,14.38,74.07-20.21,24.31-42.9-22.09-80.76-22.09-80.76C273.39,267.12,249.81,287.54,249.81,287.54ZM289.86,69.85S266.45,82.44,260.69,99l39.85,10.68C304,93.93,289.86,69.85,289.86,69.85Zm-26.55,99.09s23.41-12.59,29.17-29.17l-39.85-10.68C249.2,144.86,263.31,168.94,263.31,168.94Zm-68.6,257.23s23.41-12.59,29.17-29.17L184,386.32C180.6,402.1,194.71,426.17,194.71,426.17Zm34-126.87s-24.53,15.55-34.6,49.43L234,359.4C241.59,324.26,228.71,299.3,228.71,299.3Zm-11.79-21s-12.12-22-3.47-54.32C221.52,193.9,243,182,243,182c-18.29-35.41-13.31-59.6-13.31-59.6s-18.67-7.54-22.52,6.84L154.76,325c-3.46,12.93,15.67,17.42,15.67,17.42S181.73,308.48,216.92,278.31Z"/></g></g></svg>