<svg xmlns="http://www.w3.org/2000/svg" xmlns:xlink="http://www.w3.org/1999/xlink" viewBox="0 0 512 512"><defs><style>.cls-1{fill:url(#linear-gradient);}.cls-2{opacity:0.33;}.cls-3{fill:#fff;}</style><linearGradient id="linear-gradient" x1="61.91" y1="55.28" x2="514.35" y2="523.17" gradientUnits="userSpaceOnUse"><stop offset="0" stop-color="#ff913b"/><stop offset="0.38" stop-color="#f77927"/><stop offset="1" stop-color="#e64a00"/></linearGradient></defs><g id="mask"><rect class="cls-1" width="512" height="512" rx="256"/><path class="cls-2" d="M104.25,98.9h98.84c11.75-43,50.46-67.6,50.46-67.6S293.78,55.63,306,98.21c70.44-9.16,173.4,72,69.12,145.43,116.85,63.81,55.5,184.19-68,181.65-13.64,48.7-53.5,70.82-53.5,70.82s-34.51-18.38-49.76-70H106.33s36.08-19.5,36.08-35.26V132.49C142.41,112,104.25,98.9,104.25,98.9ZM253.9,208.31c-.25-.32-11.59,13.28-11.59,34.92,0,26.47,10.34,37.55,10.34,37.55,11.55-15.55,48.53-37.27,48.53-37.27S267.51,226,253.9,208.31Zm79.63,22.38c.47.17,48.72-29.63,34.9-57.56-16-32.33-62.76-37.87-62.76-37.87-2.49,27.09-33,56.17-33,56.17S292.63,215.8,333.53,230.69ZM273,302.27s26.52,23,33.29,78.48c0,0,62-.22,72.94-42.56,13.62-52.5-46.45-79.52-46.45-79.52C292.21,273.87,273,302.27,273,302.27ZM253.55,59.57s-21.29,20-22.69,39.3h45.38C275.39,81.13,253.55,59.57,253.55,59.57Zm0,112.84s21.29-20,22.69-39.3H230.86C231.71,150.85,253.55,172.41,253.55,172.41Zm.35,292.85s21.29-20.05,22.69-39.3H231.21C232.06,443.69,253.9,465.26,253.9,465.26Zm0-144.48s-21.64,23.5-22.69,62.36h45.38C274.7,343.63,253.9,320.78,253.9,320.78Zm-18.5-18.95s-19.15-19.94-19.15-56.73c0-34.27,19.47-53.07,19.47-53.07-29.52-32.42-31.11-59.54-31.11-59.54s-22-2.7-22,13.69V369.09c0,14.72,21.62,14.05,21.62,14.05S206.6,343.91,235.4,301.83Z"/><path class="cls-3" d="M219.28,177.64c-18.38-20.19-25.69-37.06-28.72-47.61h26.63c13.66,30.71,48.76,62.22,82.15,77.89a100.72,100.72,0,0,1-15.87,9.22c-5.48,2.67-8.73,4.22-10.61,5.1-6.67-3.59-26.61-15.68-53.62-44.57Zm84.38-72.51A88.3,88.3,0,0,1,301.78,123c62.6,15.35,66.86,64.53,9.36,94-34.11,17.49-47,20.69-65.84,39.63a53.38,53.38,0,0,0,7.2,9.55c3,3.31,7.66,8.93,11,13,17.44-20.61,54.14-35.17,85.11-49.07C451,184.21,390.64,79.87,301,83.5A83.21,83.21,0,0,1,303.66,105.13ZM284.24,354.89c1.27-.18,2.37-.35,3.31-.53-14.87-56.26-29.58-58.76-52-89.46-15.25-28.46-8.51-51.16-5.12-59.24-2.64-2.42-6.29-5.86-9.76-9.33-3.66-3.66-6.6-6.75-8.74-9.06-22.77,30.22-15.46,71.28,3,95.42,18.49,23.65,36.26,29.54,44.51,73.56C264.9,356.17,276.94,355.88,284.24,354.89ZM89.88,411.73l85.36-.19a139.81,139.81,0,0,1-.55-44.43c-5-1.52-8.5-4.74-8.5-12.41V131.79c1.33-16.37,12.08-13.47,50.09-13.47,20,0,20.13.49,30.41.43a87.62,87.62,0,0,0,1.7-17.48,79.32,79.32,0,0,0-1.81-16.79H235.49c-27.56.09-116.77,0-147.68,0,0,0,38.15,13.13,38.15,33.59V376.48C126,392.24,89.88,411.73,89.88,411.73Zm278-176.57c-3.49,1.86-10.66,5.31-24.83,11-6,2.42-10.53,4.57-13.48,6.09,45.67,25.85,54.82,96.74-15.92,111-19.92,5.78-60.77,5.56-85.92,5.39-.62,2.26-1.92,8.54-1.68,21.59.23,12.81,2.14,19.56,2.67,21.21h62.4C412.18,414,475.62,299.8,367.83,235.16ZM217.31,72.88c5.87-15.34,19.8-27.7,19.8-27.7,26,20.16,34.76,75.47,7.7,104.65a101.39,101.39,0,0,0,9.87,11.62,87.51,87.51,0,0,0,9.06,7.7C317.29,109.75,283.37,46,237.11,16.91c0,0-32.08,19.47-46.53,56Zm39.9,350.48c-6.07,15.07-19.76,27.51-19.76,27.51-25.94-23.17-27.92-56.85-22-91.13h0c2.27-20.17,9-33.95,14.49-42.57a66.77,66.77,0,0,0-6.06-6.62c-3.18-3.08-8.14-8.31-11.73-12.15-42.39,70.15-32.6,147.59,25,183.32,0,0,33.32-17.58,49.34-58.36Z"/></g></svg>