<svg xmlns="http://www.w3.org/2000/svg" xmlns:xlink="http://www.w3.org/1999/xlink" viewBox="0 0 512 512"><defs><style>.cls-1{fill:url(#linear-gradient);}.cls-2{opacity:0.33;}.cls-3{fill:#fff;}</style><linearGradient id="linear-gradient" x1="9.8" y1="1.39" x2="583.7" y2="594.9" gradientUnits="userSpaceOnUse"><stop offset="0" stop-color="#ff9a45"/><stop offset="0.41" stop-color="#f6822f"/><stop offset="1" stop-color="#e65909"/></linearGradient></defs><g id="mask"><rect class="cls-1" width="512" height="512" rx="90"/><path class="cls-2" d="M151.56,68.79,247,94.37c22.48-38.49,66.24-52.24,66.24-52.24s32.56,33.92,33.29,78.19c70.42,9.39,148.86,114.41,29.12,158.37C472,370.57,381.62,471,263,436.54c-25.78,43.52-70,54.57-70,54.57s-28.58-26.69-30-80.49L68.87,385.39s39.9-9.49,44-24.71l66.87-249.57C185,91.35,151.56,68.79,151.56,68.79ZM267.79,213.2c-.16-.37-14.63,9.83-20.24,30.74-6.84,25.56.28,38.95.28,38.95,15.17-12,56.52-23.45,56.52-23.45S276.35,233.85,267.79,213.2Zm71.12,42.23c.41.29,54.74-16,48.62-46.56C380.44,173.49,336.7,156,336.7,156c-9.41,25.53-46.41,45.72-46.41,45.72S303.26,230.47,338.91,255.43Zm-77,53.47s19.68,29.06,11.85,84.42c0,0,59.92,15.83,81.48-22.22,26.74-47.2-24.3-88.84-24.3-88.84C287.83,286.44,261.89,308.9,261.89,308.9ZM306,69.44s-25.75,13.85-32.09,32.09l43.83,11.74C321.47,95.92,306,69.44,306,69.44Zm-29.21,109s25.76-13.85,32.09-32.09L265,134.61C261.23,152,276.74,178.44,276.74,178.44Zm-75.46,283s25.76-13.86,32.09-32.09l-43.83-11.75C185.77,434.91,201.28,461.4,201.28,461.4Zm37.4-139.56s-27,17.1-38.06,54.37L244.45,388C252.85,349.3,238.68,321.84,238.68,321.84Zm-13-23.09S212.38,274.53,221.9,239c8.87-33.11,32.54-46.23,32.54-46.23-20.12-39-14.64-65.56-14.64-65.56s-20.53-8.29-24.77,7.53L157.34,350.06c-3.81,14.22,17.24,19.17,17.24,19.17S187,331.94,225.71,298.75Z"/><path class="cls-3" d="M241.47,177.05c-12.52-24.25-15.21-42.44-15.41-53.42l25.72,6.89c5.25,33.2,31,72.73,59.19,96.5a100.8,100.8,0,0,1-17.71,4.8c-6,1.16-9.52,1.81-11.57,2.18-5.52-5.19-21.65-22-40.26-56.93Zm100.28-48.2a88.67,88.67,0,0,1-6.45,16.82c56.49,31,47.88,79.63-15.3,93.22-37.46,8.07-50.71,7.83-73.85,21.24a53.35,53.35,0,0,0,4.49,11.09c2,4,5.09,10.61,7.26,15.41,22.18-15.4,61.39-20,94.9-25.38,110.75-17.9,79.5-134.28-8-154A83.12,83.12,0,0,1,341.75,128.85Zm-83.4,236.22c1.28.16,2.38.28,3.34.35.2-58.19-13.37-64.41-27.07-99.87-7.37-31.43,5-51.61,10.38-58.54-1.91-3-4.55-7.29-7-11.54-2.59-4.48-4.63-8.23-6.09-11-29.82,23.29-33.39,64.84-21.76,93,11.74,27.63,27.37,37.91,24,82.57C239.33,361.3,251,364.14,258.35,365.07ZM55.9,369.67l82.51,21.91a124.36,124.36,0,0,1,3.73-21.87,126.23,126.23,0,0,1,7.23-21.19c-4.41-2.74-7-6.77-5-14.18L202.07,119c5.51-15.46,15.15-9.88,51.87,0,19.35,5.18,19.31,5.68,29.26,8.28a87.75,87.75,0,0,0,6.17-16.44A79.31,79.31,0,0,0,292,94.13l-10.71-2.87h0c-26.64-7-112.78-30.23-142.65-38.2,0,0,33.46,22.56,28.16,42.32L99.88,345C95.8,360.18,55.9,369.67,55.9,369.67Zm314.18-98.61c-3.85.89-11.67,2.37-26.83,4.2-6.44.78-11.35,1.69-14.6,2.39,37.42,36.79,27.92,107.64-44.12,103.14-20.74.42-60.14-10.36-84.38-17-1.19,2-4.07,7.75-7.22,20.42-3.09,12.42-3,19.44-2.91,21.17l60.27,16.16C366.63,455.27,457.46,361.4,370.08,271.06ZM266.69,75.35C276.33,62.06,293,53.72,293,53.72c19.9,26.21,14,81.9-19.64,103.08a101.51,101.51,0,0,0,6.52,13.78,88.25,88.25,0,0,0,6.76,9.78c67.1-43.51,50.83-113.87,13.68-154,0,0-36,10.51-59.43,42ZM214.52,424.22c-9.76,13-26.2,21.46-26.2,21.46-19.06-29.09-12.26-62.14,2.28-93.74h0c7.41-18.9,17.49-30.45,25-37.37a67.3,67.3,0,0,0-4.15-8c-2.27-3.8-5.71-10.13-8.18-14.77C144.19,348.63,133.6,426,180,475.39c0,0,36.73-8.37,62.76-43.61Z"/></g></svg>