<svg xmlns="http://www.w3.org/2000/svg" xmlns:xlink="http://www.w3.org/1999/xlink" viewBox="0 0 512 512"><defs><style>.cls-1{fill:#fff;filter:url(#luminosity-invert-noclip);}.cls-2{mask:url(#mask);}.cls-3{fill:url(#linear-gradient);}</style><filter id="luminosity-invert-noclip" x="104.54" y="44.72" width="302.92" height="422.56" filterUnits="userSpaceOnUse" color-interpolation-filters="sRGB"><feColorMatrix values="-1 0 0 0 1 0 -1 0 0 1 0 0 -1 0 1 0 0 0 1 0" result="invert"/><feFlood flood-color="#fff" result="bg"/><feBlend in="invert" in2="bg"/></filter><mask id="mask" x="104.54" y="44.72" width="302.92" height="422.56" maskUnits="userSpaceOnUse"><path class="cls-1" d="M270.19,305.86A198.18,198.18,0,0,0,249.11,282c-6-6.19-10.25-10.56-11.69-13.73l5.25-1.91c1.05,2,5.42,6.49,10.49,11.69,3.94,4,8.84,9.08,14,14.79C267.18,292.83,272.33,308.68,270.19,305.86Zm-32.9,6.06,5.57,1c.41-2.41-1.42-4.69-13.07-16.26-3.35-3.33-6.45-6.17-7.83-7.94l-4.57,3.18c1.33,1.73,4.61,5,8.41,8.77,4,4,10.8,10.73,11.57,12.39A2,2,0,0,1,237.29,311.92Zm24.89-191.58c-.13-11.54-1.87-18-1.94-18.25l-5.46,1.5c0,.06,1.62,6.08,1.74,16.81.18,15.95-2.7,22.24-2.72,22.28l5.07,2.51C259,144.9,262.37,137.91,262.18,120.34Zm32.56-1A78,78,0,0,0,291.47,97l-5.39,1.74a72.36,72.36,0,0,1,3,20.55,155.15,155.15,0,0,1-1.86,23.34l5.56,1A158.14,158.14,0,0,0,294.74,119.32Zm-56-13.17V100.5c-22.55.07-57.06.08-59.74-.14l-.47,5.64c1.94.16,16.15.2,30.35.2C222.46,106.2,236,106.16,238.79,106.15Zm-.87,31.32c-.12,0-12-.37-23.75-.63-6.92-.16-12.44-.25-16.41-.27-8.54,0-9.63,0-10.28,2.33l5.45,1.5a2.76,2.76,0,0,1-2,1.95c2.62-.42,30.11.25,46.83.77ZM225.65,404a114.31,114.31,0,0,1-1.74-20.27c.12-16.57,2.13-26.05,2.15-26.15l-5.53-1.2c-.09.41-2.15,10.09-2.28,27.31a118.17,118.17,0,0,0,1.85,21.4ZM199.27,416c-4.75-15.2-5.44-23.85-5.06-34.5a269.85,269.85,0,0,1,5.31-40.87L194,339.36c-1.3,5.92-4.83,25-5.44,41.89-.39,11,.35,20.49,5.32,36.38Zm92.09-7.45-1.24-4.5s.2-1.11-1.27-1.11c-3,0-9,.34-14.48.41l-13,.2a6.28,6.28,0,0,0-2.87.81c-1,1,.15,4.88.15,4.88Zm-24.3-44c4.39-.17,9.59-.48,13.58-.82l1.49-.12c25.91-2.14,33.39-4.21,33.39-9.23h-5.65a1.56,1.56,0,0,1,.35-1c-1.21,1.13-7.15,2.85-28.55,4.62l-1.51.13c-8.44.71-18.65,1.06-20,.88,0,0-1.23.1-.61.73l-2,4c.67.66,1,1,4.27,1C263,364.61,264.73,364.56,267.06,364.47Zm1.34-171.32c-.07-.06-7.31-6-14.68-13.43-7.77-7.8-9.33-12.69-9.39-12.76l-14.92-7.19c.23.3,7,10.11,20.3,23.94,7.46,7.73,19.92,17.91,20.22,18.16Zm12.31,42.43c-19.6-14.89-24.31-16.4-40-29.69a205.18,205.18,0,0,1-16.7-15c-12.44-12.33-15.75-20.31-15.77-20.39l-2.78.51,2.79-.48-5.58,1c6,17.89,28,33.72,33.51,38.88C249.32,222.73,258.56,231,273,237Zm14.18-1.19c4.79-2.09,13.24-5.27,18.25-8.47,20.52-13.14,23.75-21.64,23.75-21.64l-28.22,18c-2,1.55-6.28,3.59-12.95,6.39-5.18,2.17-30.19,13.32-30.44,13.44,0,0,1.36,6.12,2.58,5.39C279.44,240.56,289.77,236.63,294.89,234.39Zm29.37,17.76c4.72-2.09,10.61-4.69,17.7-8l2.06-1c11.24-5.24,26.64-12.43,40.32-27.39L380.17,212C367.25,226.08,353,232.71,341.63,238l-2.08,1c-7,3.3-12.88,5.89-17.58,8-10.45,4.62-13,5.79-13.89,7.73l5.09,2.47a2.25,2.25,0,0,1-.3.44C313.75,256.8,318.85,254.54,324.26,252.15Z"/></mask><linearGradient id="linear-gradient" x1="90.15" y1="120.56" x2="361.21" y2="391.63" gradientUnits="userSpaceOnUse"><stop offset="0" stop-color="#219644"/><stop offset="0.49" stop-color="#127e4f"/><stop offset="1" stop-color="#00615c"/></linearGradient></defs><g id="shape"><g class="cls-2"><path class="cls-3" d="M104.54,106.18h89.85c10.69-39.09,45.88-61.46,45.88-61.46s36.57,22.12,47.63,60.83c64-8.33,157.63,65.43,62.83,132.21,106.24,58,50.46,167.44-61.83,165.13-12.4,44.28-48.63,64.39-48.63,64.39S208.89,450.56,195,403.65h-88.6s32.8-17.72,32.8-32V136.71C139.22,118.11,104.54,106.18,104.54,106.18Zm136,99.46c-.22-.29-10.53,12.07-10.53,31.75,0,24.06,9.4,34.14,9.4,34.14,10.49-14.15,44.11-33.89,44.11-33.89S253,221.75,240.58,205.64ZM313,226c.43.16,44.3-26.93,31.73-52.32-14.54-29.39-57.05-34.43-57.05-34.43-2.27,24.63-30,51.06-30,51.06S275.79,212.45,313,226Zm-55.05,65.08S282,312,288.19,362.4c0,0,56.33-.2,66.31-38.68,12.38-47.74-42.23-72.29-42.23-72.29C275.41,265.24,257.92,291.06,257.92,291.06ZM240.27,70.42s-19.36,18.22-20.63,35.73h41.25C260.12,90,240.27,70.42,240.27,70.42Zm0,102.59s19.35-18.23,20.62-35.73H219.64C220.41,153.4,240.27,173,240.27,173Zm.31,266.22S259.93,421,261.21,403.5H220C220.72,419.62,240.58,439.23,240.58,439.23Zm0-131.35s-19.67,21.37-20.63,56.7h41.26C259.49,328.66,240.58,307.88,240.58,307.88Zm-16.82-17.22s-17.4-18.13-17.4-51.57c0-31.16,17.69-48.25,17.69-48.25-26.83-29.47-28.28-54.12-28.28-54.12s-20-2.46-20,12.44V351.81c0,13.38,19.64,12.77,19.64,12.77S197.58,328.91,223.76,290.66Z"/></g></g></svg>