<svg xmlns="http://www.w3.org/2000/svg" xmlns:xlink="http://www.w3.org/1999/xlink" viewBox="0 0 512 512"><defs><style>.cls-1{fill:url(#linear-gradient);}</style><linearGradient id="linear-gradient" x1="100.54" y1="120.02" x2="366.64" y2="386.12" gradientUnits="userSpaceOnUse"><stop offset="0" stop-color="#219644"/><stop offset="0.49" stop-color="#127e4f"/><stop offset="1" stop-color="#00615c"/></linearGradient></defs><g id="shape"><path class="cls-1" d="M148.48,72.08l86.79,23.26c20.44-35,60.22-47.49,60.22-47.49s29.6,30.83,30.26,71.08c64,8.53,135.33,104,26.48,144,87.6,83.53,5.4,174.8-102.47,143.5C226.32,446,186.12,456,186.12,456s-26-24.27-27.23-73.18L73.31,359.9s36.27-8.62,40-22.46l60.8-226.89C178.89,92.59,148.48,72.08,148.48,72.08ZM254.14,203.37c-.14-.34-13.3,8.93-18.39,27.93-6.23,23.24.24,35.41.24,35.41,13.8-10.94,51.38-21.31,51.38-21.31S261.93,222.13,254.14,203.37Zm64.66,38.38c.37.27,49.76-14.55,44.19-42.33-6.44-32.15-46.2-48-46.2-48C308.23,174.6,274.6,193,274.6,193S286.39,219.06,318.8,241.75Zm-70,48.62s17.89,26.41,10.77,76.74c0,0,54.47,14.39,74.07-20.21,24.31-42.9-22.08-80.75-22.08-80.75C272.36,270,248.78,290.37,248.78,290.37Zm40-217.7s-23.41,12.59-29.17,29.17l39.85,10.68C302.94,96.75,288.83,72.67,288.83,72.67Zm-26.55,99.09s23.41-12.59,29.17-29.17l-39.84-10.68C248.18,147.69,262.28,171.76,262.28,171.76ZM193.68,429s23.41-12.6,29.17-29.18L183,389.15C179.58,404.92,193.68,429,193.68,429Zm34-126.88s-24.53,15.55-34.6,49.43l39.85,10.68C240.56,327.09,227.68,302.12,227.68,302.12Zm-11.79-21s-12.12-22-3.47-54.31c8.07-30.1,29.59-42,29.59-42-18.29-35.41-13.31-59.6-13.31-59.6S210,117.65,206.18,132L153.73,327.78c-3.46,12.93,15.67,17.43,15.67,17.43S180.7,311.31,215.89,281.13Z"/></g></svg>