<svg xmlns="http://www.w3.org/2000/svg" viewBox="0 0 512 512"><g id="shape"><path d="M139.23,54.09l95.48,25.59c22.47-38.49,66.23-52.24,66.23-52.24s32.56,33.91,33.29,78.19C404.65,115,483.09,220,363.36,264c96.35,91.89,5.93,192.28-112.71,157.86-25.79,43.52-70,54.57-70,54.57s-28.58-26.7-30-80.5L56.54,370.7s39.9-9.49,44-24.71L167.39,96.42C172.69,76.65,139.23,54.09,139.23,54.09ZM255.46,198.51c-.15-.37-14.63,9.83-20.23,30.73-6.85,25.56.27,38.95.27,38.95,15.18-12,56.52-23.45,56.52-23.45S264,219.15,255.46,198.51Zm71.12,42.22c.42.29,54.74-16,48.62-46.56-7.09-35.37-50.82-52.83-50.82-52.83C315,166.87,278,187.06,278,187.06S290.93,215.77,326.58,240.73Zm-77,53.48s19.67,29.05,11.85,84.42c0,0,59.91,15.82,81.47-22.23,26.74-47.19-24.29-88.83-24.29-88.83C275.5,271.75,249.57,294.21,249.57,294.21ZM293.62,54.75S267.87,68.6,261.54,86.83l43.83,11.75C309.14,81.23,293.62,54.75,293.62,54.75Zm-29.2,109s25.75-13.85,32.08-32.08l-43.83-11.75C248.9,137.26,264.42,163.74,264.42,163.74ZM189,446.7s25.75-13.85,32.08-32.09l-43.83-11.74C173.44,420.22,189,446.7,189,446.7Zm37.39-139.56s-27,17.1-38.06,54.37l43.84,11.75C240.53,334.6,226.35,307.14,226.35,307.14Zm-13-23.09s-13.33-24.21-3.81-59.74c8.87-33.11,32.55-46.23,32.55-46.23-20.12-39-14.65-65.56-14.65-65.56s-20.52-8.29-24.76,7.53L145,335.37c-3.81,14.22,17.24,19.16,17.24,19.16S174.67,317.25,213.38,284.05Z"/></g></svg>