<svg xmlns="http://www.w3.org/2000/svg" xmlns:xlink="http://www.w3.org/1999/xlink" viewBox="0 0 512 512"><defs><style>.cls-1{fill:url(#linear-gradient);}</style><linearGradient id="linear-gradient" x1="73.56" y1="107.02" x2="371.73" y2="405.19" gradientUnits="userSpaceOnUse"><stop offset="0" stop-color="#219644"/><stop offset="0.49" stop-color="#127e4f"/><stop offset="1" stop-color="#00615c"/></linearGradient></defs><g id="shape"><path class="cls-1" d="M89.39,91.19h98.84c11.75-43,50.46-67.6,50.46-67.6s40.23,24.33,52.4,66.91c70.45-9.15,173.4,72,69.12,145.43,116.85,63.82,55.5,184.19-68,181.65-13.64,48.71-53.5,70.83-53.5,70.83s-34.51-18.39-49.76-70H91.47s36.08-19.49,36.08-35.25V124.79C127.55,104.33,89.39,91.19,89.39,91.19ZM239,200.61c-.25-.32-11.59,13.27-11.59,34.92,0,26.46,10.34,37.55,10.34,37.55,11.55-15.56,48.53-37.28,48.53-37.28S252.66,218.33,239,200.61ZM318.67,223c.47.18,48.72-29.63,34.9-57.55-16-32.34-62.76-37.88-62.76-37.88-2.49,27.1-33,56.17-33,56.17S277.77,208.1,318.67,223Zm-60.55,71.59s26.52,23,33.29,78.47c0,0,62-.22,72.94-42.55C378,278,317.9,251,317.9,251,277.35,266.16,258.12,294.57,258.12,294.57ZM238.69,51.86s-21.29,20-22.69,39.3h45.38C260.53,73.43,238.69,51.86,238.69,51.86Zm0,112.85s21.29-20.05,22.69-39.3H216C216.85,143.14,238.69,164.71,238.69,164.71ZM239,457.55s21.29-20,22.69-39.3H216.35C217.2,436,239,457.55,239,457.55Zm0-144.48s-21.64,23.5-22.69,62.37h45.38C259.84,335.93,239,313.07,239,313.07Zm-18.5-18.94s-19.15-19.94-19.15-56.73c0-34.28,19.47-53.08,19.47-53.08-29.51-32.42-31.11-59.53-31.11-59.53s-22-2.7-22,13.68V361.39c0,14.72,21.62,14.05,21.62,14.05S191.74,336.2,220.54,294.13Z"/></g></svg>