<svg xmlns="http://www.w3.org/2000/svg" viewBox="0 0 512 512"><defs><style>.cls-1{fill:#fff;}</style></defs><g id="shape"><path class="cls-1" d="M104.54,106.18h89.85c10.69-39.09,45.88-61.46,45.88-61.46s36.57,22.12,47.63,60.83c64-8.33,157.63,65.43,62.83,132.21,106.24,58,50.46,167.44-61.83,165.13-12.4,44.28-48.63,64.39-48.63,64.39S208.89,450.56,195,403.65h-88.6s32.8-17.72,32.8-32V136.71C139.22,118.11,104.54,106.18,104.54,106.18Zm136,99.46c-.22-.29-10.53,12.07-10.53,31.75,0,24.06,9.4,34.14,9.4,34.14,10.49-14.15,44.11-33.89,44.11-33.89S253,221.75,240.58,205.64ZM313,226c.43.16,44.3-26.93,31.73-52.32-14.54-29.39-57.05-34.43-57.05-34.43-2.27,24.63-30,51.06-30,51.06S275.79,212.45,313,226Zm-55.05,65.08S282,312,288.19,362.4c0,0,56.33-.2,66.31-38.68,12.38-47.74-42.23-72.29-42.23-72.29C275.41,265.24,257.92,291.06,257.92,291.06ZM240.27,70.42s-19.36,18.22-20.63,35.73h41.25C260.12,90,240.27,70.42,240.27,70.42Zm0,102.59s19.35-18.23,20.62-35.73H219.64C220.41,153.4,240.27,173,240.27,173Zm.31,266.22S259.93,421,261.21,403.5H220C220.72,419.62,240.58,439.23,240.58,439.23Zm0-131.35s-19.67,21.37-20.63,56.7h41.26C259.49,328.66,240.58,307.88,240.58,307.88Zm-16.82-17.22s-17.4-18.13-17.4-51.57c0-31.16,17.69-48.25,17.69-48.25-26.83-29.47-28.28-54.12-28.28-54.12s-20-2.46-20,12.44V351.81c0,13.38,19.64,12.77,19.64,12.77S197.58,328.91,223.76,290.66Z"/></g></svg>